<svg width="13" height="15" viewBox="0 0 13 15" fill="none" xmlns="http://www.w3.org/2000/svg">
<path d="M6.26819 7.32767C5.3373 7.32767 4.53123 6.9938 3.87261 6.33507C3.21399 5.67646 2.88012 4.8706 2.88012 3.93961C2.88012 3.00894 3.21399 2.20297 3.87272 1.54414C4.53144 0.885627 5.33741 0.551758 6.26819 0.551758C7.19918 0.551758 8.00504 0.885627 8.66366 1.54424C9.32227 2.20286 9.65625 3.00883 9.65625 3.93961C9.65625 4.8706 9.32227 5.67657 8.66355 6.33518C8.00482 6.99369 7.19886 7.32767 6.26819 7.32767Z" fill="#101921"/>
<path d="M0.339545 11.3682C0.35854 11.0941 0.39696 10.7951 0.453518 10.4794C0.510611 10.1613 0.584125 9.8606 0.672127 9.58576C0.763026 9.30168 0.886657 9.02115 1.03948 8.75232C1.1981 8.47329 1.3844 8.23032 1.59346 8.03038C1.81207 7.82122 2.07972 7.65305 2.38923 7.53038C2.69767 7.40836 3.03948 7.34654 3.40511 7.34654C3.54871 7.34654 3.68758 7.40546 3.95577 7.58007C4.12082 7.68771 4.31389 7.8122 4.52939 7.94989C4.71366 8.0673 4.96328 8.1773 5.27161 8.27689C5.57242 8.37423 5.87785 8.4236 6.17931 8.4236C6.48077 8.4236 6.78609 8.37423 7.08723 8.27689C7.39524 8.17741 7.64486 8.06741 7.82891 7.95C8.04237 7.8136 8.23555 7.68911 8.40307 7.57996C8.67094 7.40535 8.80992 7.34644 8.95351 7.34644C9.31925 7.34644 9.66096 7.40836 9.96929 7.53049C10.2786 7.65294 10.5463 7.82111 10.7652 8.03049C10.9741 8.23053 11.1605 8.47339 11.3189 8.75232C11.4716 9.02115 11.5953 9.30157 11.6863 9.58586C11.7742 9.86071 11.8477 10.1613 11.9048 10.4794C11.9613 10.7947 11.9998 11.0938 12.0188 11.3685C12.0374 11.6377 12.0469 11.917 12.0469 12.1992C12.0469 12.9335 11.8135 13.5279 11.3532 13.9663C10.8986 14.3989 10.297 14.6184 9.56555 14.6184H2.79243C2.06094 14.6184 1.45963 14.399 1.00492 13.9663C0.544524 13.5282 0.311105 12.9337 0.311105 12.1991C0.311212 11.9157 0.320764 11.6361 0.339545 11.3682V11.3682Z" fill="#101921"/>
</svg>
