<svg width="84" height="62" viewBox="0 0 84 62" fill="none" xmlns="http://www.w3.org/2000/svg">
<path d="M46.4075 1.04467C34.7086 3.47503 23.0097 5.9054 11.3107 8.33576C9.43291 8.74182 2.3735 8.93214 1.61569 11.658C0.85988 14.2398 10.7472 17.833 12.4631 18.7208C19.4687 22.4182 26.3304 26.1136 33.192 29.8089C36.9078 31.8766 41.7535 35.544 46.2351 34.3099C48.2589 33.7619 50.1487 32.4919 52.1725 31.9438C55.2102 30.9778 58.2439 30.2997 61.4196 29.7676C67.6251 28.8454 73.9685 28.3571 80.176 27.2909C84.9395 26.4927 82.1016 23.4291 79.3898 21.6634C72.9681 17.398 66.5444 13.2767 60.1227 9.01135C57.2689 7.09965 54.413 5.33192 51.5592 3.42022C49.9893 2.39038 48.4233 1.07257 46.4075 1.04467C45.3996 1.03072 45.3777 2.61458 46.3856 2.62853C47.9694 2.65046 49.3934 3.82229 50.5333 4.70217C52.6732 6.17194 54.8151 7.49773 56.955 8.96751C62.3787 12.499 67.9444 16.1764 73.3682 19.7078C75.2241 20.8856 77.224 22.0654 78.9339 23.3853C79.2199 23.5332 79.6478 23.8272 79.7898 23.9732C82.0677 25.8769 81.2078 25.577 79.62 25.843C69.3709 27.5734 58.4258 27.5659 48.7208 31.608C45.3891 33.0021 42.9333 33.5442 39.6435 31.9144C37.9276 31.0266 36.3557 30.1407 34.6398 29.2529C28.7782 26.1474 22.9185 22.898 16.9128 19.7905C14.053 18.3108 11.1932 16.8311 8.33332 15.3513C7.18938 14.7594 4.46357 14.0016 3.61359 12.9817C2.33763 11.5239 3.91951 11.6898 4.93141 11.4158C7.09721 11.0137 9.26501 10.4677 11.4308 10.0656C22.9857 7.63325 34.6847 5.20288 46.2396 2.77053C47.6854 2.35849 47.4194 0.77064 46.4075 1.04467Z" fill="#F73859"/>
<path d="M23.051 23.6196C22.7312 25.9194 22.2673 28.2172 21.9475 30.5171C21.7875 31.667 21.0457 33.2409 21.8956 34.2608C22.4636 34.8447 23.7595 34.8626 24.3335 35.0146C26.7733 35.6244 29.2092 36.5222 31.2071 37.846C33.3489 39.1718 35.0529 40.9236 36.6108 42.8173C37.4608 43.8372 38.0208 44.9971 39.1648 45.589C41.5946 46.9188 43.4964 44.7848 45.6701 43.8068C50.1637 41.7088 54.6193 42.3465 59.3829 41.5483C60.5388 41.2763 60.9728 41.1383 61.4207 39.9924C62.7644 36.5546 61.9523 32.7989 64.0159 29.3711C64.6039 28.5152 63.1739 27.7753 62.73 28.6333C61.2563 31.0611 60.7864 33.7909 60.3166 36.5207C59.9947 38.9645 60.4108 40.1224 57.817 40.2305C54.0713 40.3227 50.3236 40.5589 46.704 41.9489C43.9542 42.919 41.3246 45.6189 38.4767 43.2752C36.0568 41.2255 34.5088 38.6118 31.797 36.8461C30.511 36.1082 29.2231 35.5143 27.9352 34.9204C26.7893 34.4725 24.7754 34.3006 23.6335 33.5647C21.7776 32.3869 23.8751 26.5113 24.337 24.3575C24.6429 23.0656 23.209 22.6137 23.051 23.6196Z" fill="#F73859"/>
<path d="M45.8929 17.1682C54.1699 12.2422 66.4752 18.0292 69.3774 26.8543C72.5536 36.6913 68.5324 46.2847 63.5212 54.5683C63.0773 55.4262 64.3632 56.1641 64.8071 55.3062C70.2602 46.3087 75.6192 33.7094 69.5692 23.4006C64.9252 15.5594 53.4699 10.7924 45.1928 15.7184C44.3189 16.4264 45.021 17.7322 45.8929 17.1682Z" fill="#F73859"/>
<path d="M45.7662 16.5927C45.7582 17.1685 44.8945 17.1566 44.9025 16.5807C44.9105 16.0049 45.7742 16.0169 45.7662 16.5927C45.7523 17.6004 47.3358 17.6223 47.3497 16.6146C47.3637 15.6069 46.5119 14.7313 45.5042 14.7173C44.4965 14.7034 43.6209 15.5551 43.6069 16.5628C43.593 17.5705 44.4447 18.4461 45.4524 18.4601C46.604 18.476 47.4797 17.6243 47.4937 16.6166C47.3636 15.6069 45.7802 15.585 45.7662 16.5927Z" fill="#F73859"/>
<path d="M64.5441 53.4323C63.5342 53.5623 62.0884 53.9744 61.3565 54.8283C60.4766 55.9683 61.7565 57.1381 62.7585 57.584C63.6164 58.028 64.9103 58.1899 65.5002 57.19C66.0901 56.19 65.6821 54.4562 64.9741 53.5823C64.6921 53.1463 63.8222 53.5663 64.1042 54.0023C64.5282 54.5842 64.8022 55.5961 64.6483 56.3141C64.4923 57.176 63.4884 56.8741 62.9144 56.7221C62.4845 56.5721 62.0565 56.2782 61.9165 55.9882C61.4925 55.4063 62.2164 55.1283 62.6524 54.8463C63.2323 54.5663 63.9542 54.4323 64.5322 54.2962C65.3961 54.3082 65.1201 53.4403 64.5441 53.4323Z" fill="#F73859"/>
<path d="M61.3562 55.2572C60.3385 55.963 59.6048 56.9607 58.8711 57.9584C58.5752 58.5302 59.289 58.972 59.7288 58.4022C60.3166 57.5465 61.0483 56.6927 61.7761 56.1268C62.2139 55.701 61.792 54.9752 61.3562 55.2572Z" fill="#F73859"/>
<path d="M61.4886 56.1255C60.6149 56.8333 59.8832 57.6871 59.2934 58.6868C58.9975 59.2586 59.8553 59.7025 60.1511 59.1306C60.7389 58.2749 61.3267 57.4191 62.2004 56.7113C62.6382 56.2854 61.9264 55.6996 61.4886 56.1255Z" fill="#F73859"/>
<path d="M62.0486 56.5637C61.7547 56.9916 61.3188 57.2735 61.0249 57.7014C60.5871 58.1273 60.0033 58.6951 59.8514 59.2689C59.6995 59.8428 60.5592 60.1426 60.7111 59.5688C60.8611 59.1389 61.4448 58.5711 61.7387 58.1432C62.0306 57.8593 62.3245 57.4314 62.6164 57.1475C63.1962 56.8676 62.4864 56.1378 62.0486 56.5637Z" fill="#F73859"/>
<path d="M62.6272 57.0029C62.0395 57.8586 61.4517 58.7144 61.0079 59.5721C60.712 60.1439 61.5698 60.5878 61.8656 60.0159C62.3094 59.1582 62.8972 58.3024 63.485 57.4467C63.7789 57.0188 62.9211 56.575 62.6272 57.0029Z" fill="#F73859"/>
<path d="M63.0494 57.2967C62.7496 58.1564 62.4477 59.1601 62.0039 60.0178C61.708 60.5897 62.5658 61.0335 62.8616 60.4617C63.3055 59.6039 63.6093 58.4563 63.9112 57.4526C64.0611 57.0227 63.2014 56.7229 63.0494 57.2967Z" fill="#F73859"/>
<path d="M63.6249 57.4483C63.6189 57.8803 63.613 58.3122 63.463 58.7422C63.311 59.3162 63.3011 60.0361 63.0071 60.4641C62.5692 60.8901 63.4251 61.478 63.8651 60.908C64.305 60.338 64.315 59.6181 64.4689 58.9002C64.4769 58.3242 64.6269 57.8942 64.6348 57.3183C64.6408 56.8863 63.6329 56.8724 63.6249 57.4483Z" fill="#F73859"/>
<path d="M64.2026 57.6017C64.1906 58.4654 64.1767 59.4731 63.7329 60.3309C63.437 60.9027 64.2947 61.3465 64.5906 60.7747C65.0364 59.773 65.1963 58.6233 65.0663 57.6137C65.2182 57.0399 64.2105 57.0259 64.2026 57.6017Z" fill="#F73859"/>
<path d="M64.9398 56.4634C65.0659 57.7613 65.3319 59.3492 64.882 60.6391C64.7301 61.213 65.59 61.513 65.742 60.939C66.1919 59.6491 65.9278 57.9173 65.8038 56.4754C65.8117 55.8994 64.8038 55.8855 64.9398 56.4634Z" fill="#F73859"/>
<path d="M8.68142 10.6037C7.95767 10.8817 6.51614 11.0057 6.64615 12.0154C6.77615 13.025 8.20971 13.4768 8.9235 13.9186C9.49533 14.2145 9.93914 13.3568 9.36731 13.0609C9.0814 12.913 8.79549 12.765 8.50957 12.6171C8.22366 12.4691 7.93774 12.3212 7.79578 12.1753C7.51186 11.8834 7.79977 11.8874 8.08967 11.7474C8.37957 11.6074 8.66747 11.6114 8.95737 11.4714C9.53518 11.3354 9.25922 10.4677 8.68142 10.6037Z" fill="#F73859"/>
<path d="M11.072 14.8143C13.5038 16 15.9337 17.3298 18.3635 18.6596C18.9355 18.9555 19.3794 18.0976 18.8075 17.8016C16.3776 16.4719 13.9477 15.1421 11.5159 13.9563C10.9439 13.6604 10.5 14.5183 11.072 14.8143Z" fill="#F73859"/>
<path d="M20.5098 19.5525C23.9416 21.3282 27.3734 23.1039 30.8072 24.7356C31.3791 25.0316 31.823 24.1736 31.2511 23.8777C27.8193 22.102 24.3875 20.3263 20.9537 18.6946C20.3797 18.5426 19.9378 19.2566 20.5098 19.5525Z" fill="#F73859"/>
<path d="M33.3857 26.355C36.5355 27.6947 39.6594 30.9063 43.1091 31.3861C45.697 31.7099 48.6046 29.734 50.9224 28.7579C51.5023 28.4779 50.9363 27.75 50.5024 27.888C46.8807 29.4221 43.2611 30.8121 39.6913 28.6025C37.6914 27.4227 35.8355 26.2449 33.6876 25.3511C33.1137 25.1991 32.8137 26.059 33.3857 26.355Z" fill="#F73859"/>
<path d="M58.1631 35.9159C58.0052 36.9218 57.8552 37.3518 56.8433 37.6258C56.4093 37.7639 55.8354 37.6119 55.2574 37.7479C54.3915 37.8799 53.5256 38.012 52.8037 38.146C52.2257 38.282 52.5017 39.1499 53.0797 39.0139C54.0896 38.8839 54.9575 38.6079 55.9654 38.6218C56.5414 38.6298 57.2613 38.6397 57.6953 38.5017C58.7092 38.0837 59.0131 36.9358 59.169 36.0739C59.179 35.3539 58.1711 35.34 58.1631 35.9159Z" fill="#F73859"/>
</svg>
