<svg width="21" height="23" viewBox="0 0 21 23" fill="none" xmlns="http://www.w3.org/2000/svg">
<path d="M6.69703 4.52452V16.2353C6.01559 15.6274 5.11763 15.2573 4.13472 15.2573C2.00992 15.2573 0.28125 16.986 0.28125 19.1108C0.28125 21.2357 2.00992 22.9644 4.13472 22.9644C6.2569 22.9644 7.98377 21.24 7.98815 19.1189H7.98824V9.70741L19.4504 6.80182V13.1266C18.769 12.5187 17.871 12.1486 16.8882 12.1486C14.7633 12.1486 13.0346 13.8773 13.0346 16.0021C13.0346 18.1269 14.7633 19.8556 16.8882 19.8556C19.013 19.8556 20.7416 18.1269 20.7416 16.0021V0.964355L6.69703 4.52452ZM4.13477 21.6731C2.72196 21.6731 1.5725 20.5237 1.5725 19.1108C1.5725 17.6979 2.72191 16.5485 4.13477 16.5485C5.54762 16.5485 6.69707 17.6979 6.69707 19.1108C6.69703 20.5237 5.54762 21.6731 4.13477 21.6731ZM7.98824 8.37542V5.52926L19.4504 2.62372V5.46984L7.98824 8.37542ZM16.8882 18.5644C15.4753 18.5644 14.3259 17.415 14.3259 16.0021C14.3259 14.5893 15.4753 13.4398 16.8882 13.4398C18.301 13.4398 19.4504 14.5892 19.4504 16.0021C19.4504 17.415 18.301 18.5644 16.8882 18.5644Z" fill="#F73859"/>
</svg>
