<svg width="19" height="20" viewBox="0 0 19 20" fill="none" xmlns="http://www.w3.org/2000/svg">
<path d="M18.1703 3.61958C17.6565 2.73173 16.9181 1.9871 16.035 1.46621C15.1243 0.928981 14.0811 0.64502 13.0184 0.64502C11.9557 0.64502 10.9126 0.928981 10.0017 1.46621C9.11861 1.98714 8.38024 2.73177 7.86642 3.61958C7.76153 3.80085 7.76951 4.02605 7.88695 4.19941L10.7175 8.37761V18.1535C10.7175 18.7772 11.2249 19.2845 11.8485 19.2845H14.1882C14.8118 19.2845 15.3192 18.7772 15.3192 18.1535V8.37757L18.1497 4.19937C18.2673 4.02605 18.2752 3.80085 18.1703 3.61958ZM14.227 18.1535C14.227 18.1735 14.2082 18.1924 14.1882 18.1924H11.8485C11.8286 18.1924 11.8097 18.1735 11.8097 18.1535V8.75611H12.7222C12.7234 8.75611 12.7246 8.75626 12.7258 8.75626C12.727 8.75626 12.7282 8.75611 12.7294 8.75611H13.3074C13.3086 8.75611 13.3097 8.75626 13.3109 8.75626C13.3121 8.75626 13.3133 8.75611 13.3145 8.75611H14.227V18.1535ZM14.4835 7.66395H14.0685L14.4138 6.62797C14.5092 6.34186 14.3546 6.0326 14.0685 5.93722C13.7823 5.84187 13.4731 5.99652 13.3777 6.28259L13.0184 7.36055L12.6591 6.28259C12.5637 5.99648 12.2545 5.84183 11.9683 5.93722C11.6822 6.0326 11.5275 6.34182 11.6229 6.62797L11.9682 7.66395H11.5533L8.9905 3.88112C9.88946 2.55069 11.4034 1.73718 13.0184 1.73718C14.6334 1.73718 16.1473 2.55069 17.0463 3.88108L14.4835 7.66395Z" fill="#F73859"/>
<path d="M6.58368 12.9285H6.54487V7.04058C6.54487 6.739 6.30038 6.49451 5.99879 6.49451H5.95999V1.77635C5.95999 1.23325 5.57245 0.82373 5.05859 0.82373C4.92866 0.82373 4.79727 0.849942 4.66804 0.901674L2.82957 1.63702C2.32427 1.83915 1.94321 2.40197 1.94321 2.94619V6.49451H1.9044C1.60282 6.49451 1.35832 6.739 1.35832 7.04058V12.9285H1.31952C1.01794 12.9285 0.773438 13.173 0.773438 13.4746V18.1539C0.773438 18.7775 1.28082 19.2848 1.9044 19.2848H5.99879C6.62242 19.2848 7.12976 18.7775 7.12976 18.1539V13.4746C7.12976 13.173 6.88526 12.9285 6.58368 12.9285ZM3.03537 2.94619C3.03537 2.84764 3.14371 2.68764 3.2352 2.65106L4.86779 1.99802V6.49451H3.03537V2.94619ZM2.45048 7.58666H2.48929H5.41387H5.45268V12.9285H2.45048V7.58666ZM6.0376 18.1539C6.0376 18.1739 6.01874 18.1927 5.99879 18.1927H1.9044C1.88445 18.1927 1.8656 18.1738 1.8656 18.1539V14.0207H1.9044H5.99879H6.0376V18.1539Z" fill="#F73859"/>
</svg>
