<svg width="31" height="31" viewBox="0 0 31 31" fill="none" xmlns="http://www.w3.org/2000/svg">
<path d="M29.5599 15.1918L27.8854 13.5173C26.8671 12.499 25.5134 11.9383 24.0734 11.9383C21.3419 11.9383 18.9213 10.2995 17.9068 7.76328C17.6248 7.05847 17.0635 6.53208 16.3786 6.28895V5.87558C16.3786 4.99449 15.8896 4.18201 15.0705 3.70224C14.8044 3.54632 14.6391 3.25836 14.6391 2.95064C14.6391 2.47104 15.0293 2.08086 15.5088 2.08086C15.9884 2.08086 16.3786 2.47104 16.3786 2.95064C16.3786 3.43098 16.7681 3.82041 17.2484 3.82041C17.7287 3.82041 18.1182 3.43098 18.1182 2.95064C18.1182 1.51185 16.9476 0.341309 15.5088 0.341309C14.0701 0.341309 12.8995 1.51185 12.8995 2.95064C12.8995 3.8733 13.3945 4.73646 14.1913 5.20324C14.3258 5.28204 14.6391 5.50552 14.6391 5.87564V6.28901C13.9541 6.53214 13.3929 7.05853 13.1109 7.76334C12.0964 10.2995 9.67584 11.9383 6.94428 11.9383C5.50428 11.9383 4.1505 12.4991 3.13234 13.5173L1.45779 15.1918C0.983705 15.6658 0.722656 16.2961 0.722656 16.9666C0.722656 18.3505 1.84855 19.4764 3.23248 19.4764H12.9274C13.2398 20.7291 14.1428 21.7202 14.6391 22.1882V25.218L14.2752 25.0079C14.0829 24.1963 13.5187 22.4668 12.0844 21.6387C10.2138 20.5588 7.75543 21.5269 7.6517 21.5688C7.28048 21.7181 7.05903 22.1016 7.11528 22.4979C7.13099 22.6086 7.5217 25.2217 9.39229 26.3017C10.057 26.6854 10.7958 26.8106 11.4769 26.8106C12.2657 26.8106 12.9766 26.6427 13.4053 26.5143L14.6391 27.2267V29.1599C14.6391 29.6402 15.0285 30.0297 15.5088 30.0297C15.9892 30.0297 16.3786 29.6402 16.3786 29.1599V27.2267L17.6124 26.5143C18.0411 26.6428 18.7519 26.8106 19.5408 26.8106C20.2219 26.8106 20.9609 26.6854 21.6255 26.3017C23.4961 25.2217 23.8867 22.6086 23.9025 22.4979C23.9587 22.1016 23.7373 21.7181 23.3661 21.5688C23.2623 21.5269 20.8039 20.5587 18.9333 21.6387C17.499 22.4668 16.9348 24.1963 16.7426 25.0079L16.3786 25.218V22.1882C16.8749 21.7202 17.778 20.7291 18.0904 19.4764H27.7852C29.1691 19.4764 30.295 18.3505 30.295 16.9666C30.295 16.2961 30.034 15.6658 29.5599 15.1918ZM10.262 24.7952C9.62018 24.4247 9.22675 23.6184 9.01707 22.9773C9.63821 22.8431 10.5411 22.7563 11.2146 23.1452C11.857 23.5161 12.2506 24.3236 12.4601 24.9642C11.7998 25.1033 10.9041 25.1659 10.262 24.7952ZM19.8031 23.1452C20.4449 22.7745 21.3398 22.8371 21.9999 22.976C21.8056 23.5811 21.4292 24.4063 20.7557 24.7952C20.1136 25.166 19.2182 25.1033 18.5589 24.9645C18.7532 24.3594 19.1294 23.5341 19.8031 23.1452ZM15.509 20.5946C15.0585 20.0925 14.5563 19.3482 14.5563 18.6066C14.5563 17.8655 15.0578 17.1217 15.5081 16.6195C15.9349 17.0904 16.4614 17.8288 16.4614 18.6066C16.4615 19.3485 15.9589 20.0931 15.509 20.5946ZM27.7852 17.7368H18.0904C17.662 16.0192 16.1211 14.7921 16.0453 14.7327C15.7302 14.486 15.2874 14.486 14.9724 14.7327C14.8966 14.7921 13.3557 16.0192 12.9274 17.7368H3.23248C2.80774 17.7368 2.46221 17.3913 2.46221 16.9666C2.46221 16.7608 2.54234 16.5673 2.68783 16.4218L4.36238 14.7473C5.052 14.0577 5.96897 13.6779 6.94428 13.6779C8.62579 13.6779 10.2506 13.1796 11.643 12.2368C13.0354 11.2941 14.1015 9.9706 14.726 8.40935C14.8548 8.08742 15.1621 7.87937 15.5088 7.87937C15.8556 7.87937 16.1629 8.08742 16.2917 8.40941C16.9162 9.97066 17.9823 11.2942 19.3747 12.2369C20.7671 13.1796 22.3919 13.6779 24.0734 13.6779C25.0487 13.6779 25.9657 14.0577 26.6553 14.7473L28.3299 16.4218C28.4754 16.5673 28.5555 16.7608 28.5555 16.9666C28.5555 17.3913 28.21 17.7368 27.7852 17.7368Z" fill="#F73859"/>
</svg>
