<svg width="25" height="22" viewBox="0 0 25 22" fill="none" xmlns="http://www.w3.org/2000/svg">
<path d="M23.7406 3.49759C23.7392 3.49759 23.7377 3.49741 23.7363 3.49741H17.3992V2.79847C17.3992 1.64231 16.4586 0.70166 15.3024 0.70166H9.71091C8.55475 0.70166 7.6141 1.64231 7.6141 2.79847V3.49741H1.27706C0.887915 3.49741 0.578125 3.8163 0.578125 4.19635V19.573C0.578125 20.7291 1.51878 21.6698 2.67494 21.6698H22.3384C23.4946 21.6698 24.4352 20.7291 24.4352 19.573V4.21109C24.4352 4.21018 24.4352 4.20927 24.4352 4.20836C24.4085 3.74932 24.1261 3.50014 23.7406 3.49759ZM9.01198 2.79847C9.01198 2.41315 9.32559 2.09954 9.71091 2.09954H15.3024C15.6877 2.09954 16.0014 2.41315 16.0014 2.79847V3.49741H9.01198V2.79847ZM22.7665 4.89529L20.596 11.4067C20.5008 11.6926 20.2343 11.8847 19.9331 11.8847H16.0014V11.1857C16.0014 10.7997 15.6885 10.4868 15.3024 10.4868H9.71091C9.32486 10.4868 9.01198 10.7997 9.01198 11.1857V11.8847H5.08027C4.77903 11.8847 4.51256 11.6926 4.41737 11.4067L2.24684 4.89529H22.7665ZM14.6035 11.8847V13.2825H10.4099V11.8847H14.6035ZM23.0373 19.573C23.0373 19.9583 22.7237 20.2719 22.3384 20.2719H2.67494C2.28961 20.2719 1.976 19.9583 1.976 19.573V8.50337L3.09121 11.8488C3.37697 12.7065 4.17638 13.2825 5.08027 13.2825H9.01198V13.9815C9.01198 14.3675 9.32486 14.6804 9.71091 14.6804H15.3024C15.6885 14.6804 16.0014 14.3675 16.0014 13.9815V13.2825H19.9331C20.837 13.2825 21.6364 12.7065 21.9221 11.8488L23.0373 8.50337V19.573Z" fill="#F73859"/>
</svg>
