<svg width="27" height="27" viewBox="0 0 27 27" fill="none" xmlns="http://www.w3.org/2000/svg">
<path d="M16.0469 22.123V25.1699C16.0469 25.7309 15.5922 26.1855 15.0312 26.1855H13C11.3199 26.1855 9.95312 24.8188 9.95312 23.1387V22.6271C9.95312 22.4926 9.86842 22.3706 9.73711 22.3165L9.72382 22.3109C9.72203 22.3103 9.72025 22.3095 9.71866 22.3087C9.58675 22.254 9.44016 22.2802 9.34514 22.3754L8.98332 22.7372C7.79552 23.925 5.86246 23.925 4.67445 22.7372L3.95618 22.0189C3.38072 21.4435 3.06393 20.6784 3.06393 19.8645C3.06393 19.0506 3.38072 18.2855 3.95638 17.71L4.31799 17.3482C4.41301 17.2532 4.43919 17.1066 4.38464 16.9749L4.37631 16.9551C4.32275 16.8249 4.20076 16.7402 4.06627 16.7402H3.55469C1.87454 16.7402 0.507812 15.3735 0.507812 13.6934V12.6777C0.507812 10.9976 1.87454 9.63086 3.55469 9.63086H4.06627C4.20076 9.63086 4.32275 9.54616 4.37691 9.41504L4.38464 9.39659C4.43939 9.26448 4.41321 9.11809 4.31799 9.02287L3.95638 8.66125C3.38092 8.0858 3.06393 7.32071 3.06393 6.50682C3.06393 5.69293 3.38092 4.92764 3.95638 4.35219L4.67445 3.63411C5.24991 3.05865 6.015 2.74167 6.82889 2.74167C7.64278 2.74167 8.40787 3.05865 8.98352 3.63411L9.34514 3.99573C9.44035 4.09094 9.58694 4.11693 9.71866 4.06238C9.72025 4.06158 9.72203 4.06099 9.72382 4.0602L9.74068 4.05325C9.86842 4.00049 9.95332 3.87849 9.95332 3.744V3.23242C9.95332 1.55228 11.3201 0.185547 13.0002 0.185547H15.0314C15.5922 0.185547 16.0471 0.640198 16.0471 1.20117V4.24805C16.0471 4.80902 15.5922 5.26367 15.0314 5.26367C14.4705 5.26367 14.0158 4.80902 14.0158 4.24805V2.2168H13.0002C12.44 2.2168 11.9846 2.67244 11.9846 3.23242V3.744C11.9846 4.70389 11.4067 5.56281 10.5127 5.93196L10.4962 5.9389C9.60281 6.30945 8.58739 6.11049 7.90898 5.43208L7.54716 5.07047C7.35535 4.87845 7.10025 4.77292 6.82909 4.77292C6.55772 4.77292 6.30283 4.87845 6.11101 5.07047L5.39273 5.78854C5.20091 5.98036 5.09538 6.23546 5.09538 6.50682C5.09538 6.77798 5.20091 7.03308 5.39273 7.2249L5.75435 7.58652C6.43315 8.26532 6.63191 9.28154 6.26057 10.1756L6.25502 10.1893C5.88507 11.0843 5.02635 11.6621 4.06627 11.6621H3.55469C2.99471 11.6621 2.53906 12.1178 2.53906 12.6777V13.6934C2.53906 14.2533 2.99471 14.709 3.55469 14.709H4.06627C5.02615 14.709 5.88507 15.2868 6.25423 16.1808L6.26176 16.1987C6.63171 17.0896 6.43315 18.1058 5.75435 18.7846L5.39253 19.1462C5.20071 19.338 5.09518 19.5931 5.09518 19.8645C5.09518 20.1356 5.20071 20.3907 5.39253 20.5826L6.11081 21.3008C6.50674 21.6968 7.15103 21.6968 7.54716 21.3008L7.90878 20.939C8.58719 20.2608 9.60262 20.0618 10.4962 20.4324L10.5093 20.4377C11.4067 20.8083 11.9844 21.6672 11.9844 22.6271V23.1387C11.9844 23.6987 12.44 24.1543 13 24.1543H14.0156V22.123C14.0156 21.5621 14.4703 21.1074 15.0312 21.1074C15.5922 21.1074 16.0469 21.5621 16.0469 22.123ZM24.7305 11.4082C24.1266 11.4082 23.5934 11.7097 23.2723 12.1699H15.3722C15.0511 11.7097 14.5179 11.4082 13.9141 11.4082C12.9326 11.4082 12.1367 12.204 12.1367 13.1855C12.1367 14.1671 12.9326 14.9629 13.9141 14.9629C14.5179 14.9629 15.0511 14.6614 15.3722 14.2012H23.2723C23.5934 14.6614 24.1266 14.9629 24.7305 14.9629C25.712 14.9629 26.5078 14.1671 26.5078 13.1855C26.5078 12.204 25.712 11.4082 24.7305 11.4082ZM24.7305 19.7363C24.6037 19.7363 24.4801 19.7498 24.3609 19.775L21.8889 17.3373C21.6989 17.1501 21.4428 17.0449 21.1758 17.0449H13.5078C11.3798 17.0449 9.64844 15.3136 9.64844 13.1855C9.64844 11.0575 11.3798 9.32617 13.5078 9.32617H21.1758C21.4452 9.32617 21.7034 9.21925 21.8939 9.02882L24.3744 6.54828C24.4895 6.57169 24.6085 6.58398 24.7305 6.58398C25.712 6.58398 26.5078 5.78835 26.5078 4.80664C26.5078 3.82513 25.712 3.0293 24.7305 3.0293C23.749 3.0293 22.9531 3.82513 22.9531 4.80664C22.9531 4.89848 22.9601 4.98854 22.9736 5.07661L20.7551 7.29492H13.5078C10.2598 7.29492 7.61719 9.93733 7.61719 13.1855C7.61719 16.4338 10.2598 19.0762 13.5078 19.0762H20.7592L22.9718 21.258C22.9597 21.3415 22.9531 21.4268 22.9531 21.5137C22.9531 22.4952 23.749 23.291 24.7305 23.291C25.712 23.291 26.5078 22.4952 26.5078 21.5137C26.5078 20.5322 25.712 19.7363 24.7305 19.7363Z" fill="#F73859"/>
</svg>
