<svg width="24" height="27" viewBox="0 0 24 27" fill="none" xmlns="http://www.w3.org/2000/svg">
<path d="M22.9501 9.97311L13.7268 0.749833C12.7733 -0.203693 11.2217 -0.203748 10.2681 0.749833C9.41091 1.60697 9.33708 2.91424 9.97009 3.84771L9.95725 3.91191C9.29229 7.23702 7.67341 10.262 5.27552 12.6598L1.04504 16.8903C0.0892337 17.8462 0.0890707 19.3931 1.04504 20.349L3.35079 22.6547C4.30655 23.6105 5.85361 23.6106 6.80948 22.6547L7.38594 22.0783L11.4211 26.1134C12.3769 27.0693 13.9238 27.0693 14.8797 26.1134C15.8333 25.1599 15.8333 23.6083 14.8797 22.6548L13.1504 20.9255L13.7268 20.349C14.6826 19.3932 14.6828 17.8463 13.7268 16.8904L13.3351 16.4986C15.2622 15.1493 17.4508 14.21 19.788 13.7425L19.8531 13.7295C20.8073 14.3738 22.1115 14.2702 22.9501 13.4317H22.9501C23.9035 12.4782 23.9035 10.9267 22.9501 9.97311ZM5.6566 21.5019C5.33803 21.8204 4.82224 21.8204 4.50367 21.5018L2.19792 19.1961C1.8793 18.8774 1.8793 18.3618 2.19792 18.0432L6.23301 14.008L9.69169 17.4667C9.29691 17.8615 6.06112 21.0973 5.6566 21.5019ZM13.7268 23.8076C14.0446 24.1254 14.0446 24.6426 13.7268 24.9605C13.409 25.2783 12.8917 25.2783 12.5739 24.9605L8.53876 20.9253L9.69169 19.7725L13.7268 23.8076ZM10.8446 18.6196C11.0896 18.3745 11.4565 17.9991 12.0354 17.5047L12.5739 18.0432C12.8925 18.3618 12.8925 18.8774 12.5739 19.1961L11.9974 19.7725L10.8446 18.6196ZM10.8792 16.3485L7.35115 12.8205C9.24184 10.6373 10.5958 8.06024 11.3202 5.26055L18.4391 12.3795C15.6394 13.1038 13.0624 14.4578 10.8792 16.3485ZM21.797 12.2788C21.4784 12.5973 20.9628 12.5973 20.6441 12.2788L11.421 3.05558C11.1024 2.73691 11.1024 2.22133 11.421 1.90271C11.7396 1.58409 12.2553 1.58409 12.5739 1.90271L21.797 11.1258C22.1148 11.4437 22.1148 11.9608 21.797 12.2788Z" fill="#F73859"/>
<path d="M7.31165 16.5527C7.02444 16.2655 6.55862 16.2655 6.27136 16.5527L5.23107 17.593C4.94381 17.8803 4.94381 18.346 5.23107 18.6333C5.51828 18.9206 5.98415 18.9206 6.27136 18.6333L7.31165 17.593C7.59892 17.3058 7.59892 16.84 7.31165 16.5527Z" fill="#F73859"/>
<path d="M16.9387 0.405762C16.5325 0.405762 16.2031 0.735111 16.2031 1.14138V2.61261C16.2031 3.01887 16.5325 3.34822 16.9387 3.34822C17.345 3.34822 17.6744 3.01887 17.6744 2.61261V1.14138C17.6744 0.735111 17.345 0.405762 16.9387 0.405762Z" fill="#F73859"/>
<path d="M22.8162 6.2915H21.345C20.9387 6.2915 20.6094 6.62085 20.6094 7.02712C20.6094 7.43339 20.9387 7.76273 21.345 7.76273H22.8162C23.2225 7.76273 23.5518 7.43339 23.5518 7.02712C23.5518 6.62085 23.2224 6.2915 22.8162 6.2915Z" fill="#F73859"/>
<path d="M21.8676 2.09301C21.5804 1.80575 21.1146 1.80575 20.8273 2.09301L19.3561 3.56424C19.0688 3.8515 19.0688 4.31727 19.3561 4.60453C19.6433 4.89179 20.1091 4.89184 20.3964 4.60453L21.8676 3.1333C22.1549 2.84604 22.1549 2.38032 21.8676 2.09301Z" fill="#F73859"/>
</svg>
