<svg width="31" height="22" viewBox="0 0 31 22" fill="none" xmlns="http://www.w3.org/2000/svg">
<path d="M27.9343 13.1368H27.2838V12.4218C27.2838 11.8974 27.1191 11.4112 26.8395 11.0113C27.3526 9.78208 27.5548 8.62282 27.4913 7.29452C27.4031 5.45033 26.7025 3.71574 25.5186 2.41029C24.303 1.06979 22.711 0.331543 21.0358 0.331543C18.4793 0.331543 16.3864 1.91536 15.5204 2.68499C14.6793 1.90803 12.6448 0.331543 9.98652 0.331543C8.31148 0.331543 6.71942 1.06979 5.50376 2.41029C4.31983 3.7158 3.61926 5.45039 3.53101 7.29464C3.46762 8.623 3.6697 9.78231 4.18256 11.0117C3.90317 11.4115 3.73859 11.8976 3.73859 12.4218V13.1368H3.08813C1.85489 13.1368 0.851562 14.1434 0.851562 15.3806C0.851562 16.6178 1.85489 17.6244 3.08813 17.6244H3.73859V18.3393C3.73859 19.6974 4.83978 20.8022 6.1934 20.8022C6.78883 20.8022 7.3353 20.5883 7.76077 20.2332C8.16368 21.0421 8.99682 21.5991 9.95771 21.5991C11.3113 21.5991 12.4125 20.4943 12.4125 19.1362V19.0012C13.9974 20.1313 15.1877 20.9341 15.2016 20.9434C15.2983 21.0086 15.4099 21.0412 15.5215 21.0412C15.6331 21.0412 15.7447 21.0086 15.8414 20.9435C15.8551 20.9342 17.0353 20.1385 18.6097 19.0155V19.1362C18.6097 20.4943 19.7109 21.5992 21.0645 21.5992C22.0253 21.5992 22.8585 21.0421 23.2614 20.2333C23.687 20.5883 24.2334 20.8023 24.8288 20.8023C26.1824 20.8023 27.2836 19.6974 27.2836 18.3394V17.6244H27.9341C29.1673 17.6244 30.1707 16.6179 30.1707 15.3806C30.1708 14.1434 29.1675 13.1368 27.9343 13.1368ZM4.67503 7.34933C4.82993 4.11127 7.21264 1.47688 9.98652 1.47688C12.9151 1.47688 15.0624 3.84104 15.083 3.86423C15.1895 3.98425 15.3419 4.05377 15.5024 4.05635C15.6637 4.05961 15.8173 3.9937 15.9277 3.87717C15.9504 3.85318 18.2326 1.47688 21.0358 1.47688C23.8096 1.47688 26.1924 4.11127 26.3473 7.34933C26.3961 8.37086 26.2629 9.27839 25.9207 10.2168C25.5916 10.0521 25.221 9.95897 24.829 9.95897C24.2336 9.95897 23.6871 10.1729 23.2616 10.528C22.8587 9.71915 22.0256 9.16208 21.0647 9.16208C19.7111 9.16208 18.6099 10.2669 18.6099 11.625V13.1368H12.4126V11.625C12.4126 10.2669 11.3114 9.16208 9.95777 9.16208C8.99693 9.16208 8.16374 9.71915 7.76083 10.528C7.3353 10.1729 6.78883 9.95897 6.19345 9.95897C5.80131 9.95897 5.43064 10.0522 5.10148 10.2169C4.75933 9.27844 4.62625 8.37086 4.67503 7.34933ZM12.4126 14.2821H18.6099V16.479H12.4126V14.2821ZM3.08813 16.4791C2.4864 16.4791 1.99685 15.9863 1.99685 15.3806C1.99685 14.7749 2.4864 14.2821 3.08813 14.2821H3.73859V16.479H3.08813V16.4791ZM6.1934 19.6569C5.47135 19.6569 4.88388 19.0659 4.88388 18.3393V12.4218C4.88388 11.6953 5.47135 11.1042 6.1934 11.1042C6.91544 11.1042 7.50291 11.6953 7.50291 12.4218V18.3393C7.50291 19.0658 6.9155 19.6569 6.1934 19.6569ZM11.2673 19.1361C11.2673 19.8627 10.6798 20.4538 9.95777 20.4538C9.23573 20.4538 8.64825 19.8627 8.64825 19.1361V11.6251C8.64825 10.8985 9.23573 10.3074 9.95777 10.3074C10.6798 10.3074 11.2673 10.8985 11.2673 11.6251V19.1361ZM15.5216 19.776C14.983 19.408 13.8196 18.6061 12.4578 17.6243H18.5842C17.2236 18.6061 16.0602 19.4081 15.5216 19.776ZM22.3742 19.1361C22.3742 19.8627 21.7867 20.4538 21.0647 20.4538C20.3426 20.4538 19.7552 19.8627 19.7552 19.1361V11.6251C19.7552 10.8985 20.3426 10.3074 21.0647 10.3074C21.7867 10.3074 22.3742 10.8985 22.3742 11.6251V19.1361ZM26.1385 18.3393C26.1385 19.0659 25.551 19.6569 24.829 19.6569C24.107 19.6569 23.5195 19.0659 23.5195 18.3393V12.4218C23.5195 11.6953 24.107 11.1042 24.829 11.1042C25.551 11.1042 26.1385 11.6953 26.1385 12.4218V18.3393ZM27.9343 16.4791H27.2838V14.2821H27.9343C28.536 14.2821 29.0255 14.7748 29.0255 15.3806C29.0255 15.9863 28.536 16.4791 27.9343 16.4791Z" fill="#F73859"/>
</svg>
