<svg version="1.2" xmlns="http://www.w3.org/2000/svg" viewBox="0 0 25 25" width="25" height="25">
	<title>cate2-svg</title>
	<style>
		.s0 { fill: #f73859 } 
	</style>
	<g id="Layer">
		<path id="Layer" fill-rule="evenodd" class="s0" d="m23.6 7c0.7 1.6 1.1 3.3 1.1 5.2 0 1.4-1.1 2.6-2.5 2.6h-4.6c-1.3 0-2.3 1-2.3 2.3 0 0.6 0.2 0.9 0.4 1.4 0.3 0.5 0.6 1.1 0.6 2.3 0 0.5-0.1 1.5-0.8 2.4-0.5 0.6-1.4 1.2-3 1.2-3.3 0-6.3-1.3-8.6-3.6-2.4-2.3-3.6-5.3-3.6-8.6 0-3.3 1.2-6.4 3.6-8.7 2.3-2.3 5.3-3.6 8.6-3.6 1.9 0 3.8 0.5 5.5 1.3q-0.6 0.9-0.7 1.8c-1.4-0.7-3.1-1.1-4.8-1.1-5.7 0-10.3 4.6-10.3 10.3 0 5.7 4.6 10.3 10.3 10.3 1.7 0 1.9-1.2 1.9-1.7 0-0.7-0.1-1-0.4-1.4-0.3-0.5-0.6-1.2-0.6-2.3 0-2.4 1.9-4.2 4.2-4.2h4.6c0.3 0 0.6-0.3 0.6-0.7 0-1.7-0.4-3.2-1.1-4.6q1-0.1 1.9-0.6zm-4.3-2.9c-0.2-0.8 0-1.6 0.5-2.2 1.2-1.2 3.7-0.7 4.9-2 0 3-0.9 4.3-1.8 5.1-0.6 0.7-1.6 0.8-2.4 0.5l-12.6 12.7-1.4-1.4zm-11.6 5.5c-0.4 0-0.8-0.2-1.2-0.5-0.6-0.7-0.6-1.8 0-2.4 0.7-0.7 1.8-0.7 2.4 0 0.7 0.6 0.7 1.7 0 2.4-0.3 0.3-0.7 0.5-1.2 0.5zm-2 1.4c0.9 0 1.6 0.7 1.6 1.6 0 0.8-0.7 1.5-1.6 1.5-0.8 0-1.6-0.7-1.6-1.5 0-0.9 0.8-1.6 1.6-1.6zm6.8-3.4c-1 0-1.9-0.8-1.9-1.8 0-1 0.9-1.8 1.9-1.8 1 0 1.8 0.8 1.8 1.8 0 1-0.8 1.8-1.8 1.8z"/>
	</g>
</svg>