<svg width="25" height="22" viewBox="0 0 25 22" fill="none" xmlns="http://www.w3.org/2000/svg">
<path d="M21.8337 3.79158H18.306L17.8952 2.55925C17.6972 1.96089 17.3155 1.44024 16.8044 1.07147C16.2933 0.702697 15.6788 0.504594 15.0485 0.505373H9.973C9.3429 0.504892 8.7287 0.703124 8.21777 1.07187C7.70683 1.44061 7.3252 1.96109 7.12715 2.55925L6.71555 3.79158H3.18781C2.39234 3.79245 1.62971 4.10883 1.06723 4.67131C0.504752 5.23379 0.18837 5.99642 0.1875 6.79188V18.8687C0.189239 19.6636 0.506005 20.4254 1.06839 20.9871C1.63077 21.5489 2.39291 21.8648 3.18781 21.8657H21.837C22.6319 21.864 23.3937 21.5472 23.9555 20.9848C24.5173 20.4224 24.8332 19.6603 24.834 18.8654V6.7886C24.8323 5.9937 24.5155 5.23191 23.9532 4.67014C23.3908 4.10838 22.6286 3.79245 21.8337 3.79158ZM23.1909 18.8654C23.1905 19.2252 23.0474 19.5702 22.7929 19.8246C22.5385 20.079 22.1936 20.2222 21.8337 20.2226H3.18781C2.82799 20.2222 2.48303 20.079 2.2286 19.8246C1.97417 19.5702 1.83104 19.2252 1.8306 18.8654V6.7886C1.83191 6.42935 1.97542 6.08523 2.22976 5.83151C2.48409 5.57779 2.82856 5.43511 3.18781 5.43468H7.30789C7.48024 5.43455 7.64819 5.38021 7.78797 5.27937C7.92774 5.17852 8.03225 5.03626 8.08672 4.87274L8.68563 3.07601C8.77556 2.80576 8.94834 2.5707 9.17943 2.4042C9.41052 2.23771 9.68818 2.14823 9.973 2.14848H15.0485C15.3335 2.14816 15.6113 2.23771 15.8424 2.40438C16.0735 2.57105 16.2462 2.80636 16.3359 3.07683L16.9348 4.87274C16.9893 5.03626 17.0938 5.17852 17.2336 5.27937C17.3734 5.38021 17.5413 5.43455 17.7137 5.43468H21.8337C22.1936 5.43512 22.5385 5.57825 22.7929 5.83268C23.0474 6.08711 23.1905 6.43206 23.1909 6.79188V18.8654Z" fill="#F73859"/>
<path d="M12.5132 6.25623C11.2945 6.25623 10.1033 6.6176 9.08998 7.29465C8.0767 7.9717 7.28695 8.93401 6.82059 10.0599C6.35423 11.1858 6.23221 12.4247 6.46996 13.6199C6.70771 14.8152 7.29455 15.9131 8.15627 16.7748C9.01799 17.6365 10.1159 18.2234 11.3111 18.4611C12.5064 18.6989 13.7453 18.5768 14.8712 18.1105C15.997 17.6441 16.9594 16.8544 17.6364 15.8411C18.3135 14.8278 18.6748 13.6365 18.6748 12.4179C18.6731 10.7842 18.0234 9.218 16.8682 8.06285C15.7131 6.9077 14.1468 6.25797 12.5132 6.25623ZM12.5132 16.9364C11.6195 16.9364 10.7459 16.6714 10.0028 16.1749C9.25977 15.6784 8.68062 14.9727 8.33862 14.147C7.99662 13.3214 7.90714 12.4129 8.08149 11.5363C8.25584 10.6598 8.68619 9.8547 9.31812 9.22278C9.95004 8.59085 10.7552 8.1605 11.6317 7.98615C12.5082 7.8118 13.4167 7.90128 14.2424 8.24328C15.068 8.58528 15.7737 9.16443 16.2702 9.9075C16.7667 10.6506 17.0317 11.5242 17.0317 12.4179C17.0304 13.6159 16.554 14.7644 15.7068 15.6115C14.8597 16.4586 13.7112 16.9351 12.5132 16.9364Z" fill="#F73859"/>
<path d="M20.7278 8.72086C21.1815 8.72086 21.5494 8.35304 21.5494 7.89931C21.5494 7.44558 21.1815 7.07776 20.7278 7.07776C20.2741 7.07776 19.9062 7.44558 19.9062 7.89931C19.9062 8.35304 20.2741 8.72086 20.7278 8.72086Z" fill="#F73859"/>
</svg>
