<svg width="25" height="20" viewBox="0 0 25 20" fill="none" xmlns="http://www.w3.org/2000/svg">
<path d="M23.9241 9.36518L18.5333 3.65381C18.202 3.3024 17.6489 3.28637 17.2975 3.61797C16.9466 3.9493 16.9303 4.50264 17.2619 4.85377L22.0866 9.96486L17.2619 15.0765C16.9303 15.4277 16.9466 15.9807 17.2975 16.3123C17.4665 16.4717 17.6824 16.5507 17.8975 16.5507C18.1298 16.5507 18.3617 16.4586 18.5333 16.2771L23.9242 10.5654C24.242 10.2283 24.242 9.70201 23.9241 9.36518Z" fill="#F73859"/>
<path d="M7.75244 15.0763L2.9281 9.96493L7.75244 4.85356C8.08377 4.50243 8.06774 3.94905 7.71661 3.61777C7.36575 3.28644 6.8121 3.30247 6.48081 3.6536L1.08998 9.36497C0.772089 9.70181 0.772089 10.2284 1.08998 10.5653L6.48109 16.2769C6.65301 16.459 6.88467 16.5508 7.11692 16.5508C7.33196 16.5508 7.54792 16.4715 7.71661 16.3121C8.06806 15.9808 8.08377 15.4275 7.75244 15.0763Z" fill="#F73859"/>
<path d="M13.9223 0.708719C13.4453 0.636462 12.9988 0.963964 12.926 1.44099L10.3617 18.2254C10.2888 18.7027 10.6167 19.1489 11.094 19.2217C11.1389 19.2284 11.1831 19.2316 11.2271 19.2316C11.6517 19.2316 12.0241 18.9219 12.0903 18.4894L14.6546 1.70502C14.7274 1.22768 14.3996 0.781568 13.9223 0.708719Z" fill="#F73859"/>
</svg>
