<svg width="25" height="30" viewBox="0 0 25 30" fill="none" xmlns="http://www.w3.org/2000/svg">
<path d="M24.5937 8.45988L24.5928 8.43774C24.5804 8.1645 24.5722 7.87542 24.5672 7.55379C24.544 5.98534 23.2971 4.68795 21.7285 4.60027C18.4579 4.41775 15.9278 3.35128 13.766 1.24417L13.7475 1.22659C13.0424 0.580069 11.9788 0.580069 11.2734 1.22659L11.255 1.24417C9.09317 3.35128 6.56307 4.41775 3.29248 4.60049C1.72403 4.68795 0.476991 5.98534 0.453769 7.55401C0.448995 7.87347 0.440531 8.16255 0.42816 8.43774L0.426858 8.48917C0.363269 11.8242 0.284271 15.9749 1.67281 19.7422C2.43631 21.814 3.59263 23.6149 5.10943 25.0952C6.83696 26.7811 9.09968 28.1195 11.8347 29.0731C11.9236 29.1041 12.0161 29.1293 12.1103 29.1482C12.2431 29.1746 12.3768 29.1879 12.5105 29.1879C12.6442 29.1879 12.7781 29.1746 12.9107 29.1482C13.0049 29.1293 13.098 29.1039 13.1874 29.0726C15.9191 28.1173 18.1794 26.7782 19.9054 25.0926C21.4216 23.6118 22.5779 21.8105 23.3421 19.7383C24.7358 15.9597 24.657 11.8012 24.5937 8.45988ZM21.776 19.1608C20.3115 23.1315 17.322 25.8585 12.6366 27.497C12.6199 27.5027 12.6021 27.5077 12.5836 27.5113C12.5352 27.5209 12.4859 27.5209 12.4369 27.5111C12.4187 27.5074 12.4009 27.5027 12.3844 27.497C7.694 25.8615 4.7025 23.1361 3.23909 19.1652C1.95928 15.6925 2.03177 11.8824 2.09579 8.52108L2.09623 8.50241C2.10925 8.21355 2.11793 7.91101 2.1227 7.57853C2.13312 6.88209 2.68784 6.30588 3.38558 6.26704C5.23639 6.16373 6.86235 5.80607 8.35636 5.17366C9.84842 4.54211 11.1736 3.65186 12.4072 2.45214C12.4699 2.39919 12.5513 2.39897 12.6138 2.45214C13.8476 3.65186 15.1727 4.54211 16.6646 5.17366C18.1586 5.80607 19.7846 6.16373 21.6356 6.26704C22.3333 6.30588 22.888 6.88209 22.8982 7.57875C22.9032 7.91297 22.9119 8.2155 22.9249 8.50241C22.9887 11.8676 23.0595 15.6808 21.776 19.1608Z" fill="#F73859"/>
<path d="M12.5111 7.87646C8.60198 7.87646 5.42188 11.0568 5.42188 14.9657C5.42188 18.8748 8.60198 22.0551 12.5111 22.0551C16.42 22.0551 19.6003 18.8748 19.6003 14.9657C19.6003 11.0568 16.42 7.87646 12.5111 7.87646ZM12.5111 20.3857C9.52239 20.3857 7.09103 17.9543 7.09103 14.9657C7.09103 11.977 9.52239 9.54562 12.5111 9.54562C15.4995 9.54562 17.9309 11.977 17.9309 14.9657C17.9309 17.9543 15.4995 20.3857 12.5111 20.3857Z" fill="#F73859"/>
<path d="M14.5487 12.7647L11.2559 16.0574L10.3622 15.1637C10.0363 14.8377 9.50779 14.8377 9.18182 15.1637C8.85606 15.4897 8.85606 16.0181 9.18182 16.3439L10.6659 17.8279C10.8288 17.9909 11.0424 18.0723 11.2559 18.0723C11.4695 18.0723 11.6831 17.9909 11.846 17.8279L15.7291 13.9449C16.0549 13.6189 16.0549 13.0904 15.7291 12.7647C15.4031 12.4385 14.8747 12.4385 14.5487 12.7647Z" fill="#F73859"/>
</svg>
