<svg width="25" height="24" viewBox="0 0 25 24" fill="none" xmlns="http://www.w3.org/2000/svg">
<path d="M24.6063 7.16029C24.6063 3.26779 21.5569 0.101074 17.8086 0.101074C14.2583 0.101074 11.3355 2.94216 11.0365 6.54992H1.89758V18.7209H1.55676C1.15817 18.7209 0.795116 18.9311 0.5856 19.2832C0.376085 19.6353 0.357395 20.0665 0.535587 20.4367L1.27216 21.9666C1.82514 23.1151 2.93674 23.8285 4.17325 23.8285H18.7025C19.9389 23.8285 21.0505 23.1151 21.6036 21.9666L22.3401 20.4368C22.5184 20.0666 22.4997 19.6353 22.2901 19.2832C22.0805 18.9311 21.7175 18.7209 21.3189 18.7209H20.9781V13.4036C23.1339 12.2185 24.6063 9.86478 24.6063 7.16029ZM17.8086 1.57515C20.7741 1.57515 23.1868 4.08064 23.1868 7.16029C23.1868 10.2399 20.7741 12.7454 17.8086 12.7454C14.843 12.7454 12.4303 10.2399 12.4303 7.16029C12.4303 4.08064 14.843 1.57515 17.8086 1.57515ZM20.3339 21.3074C20.023 21.9533 19.3978 22.3545 18.7025 22.3545H4.17325C3.47789 22.3545 2.8528 21.9533 2.54184 21.3074L2.00622 20.195H20.8695L20.3339 21.3074ZM19.5586 18.7209H3.31706V8.024H11.0617C11.4732 11.5105 14.3418 14.2195 17.8085 14.2195C18.4135 14.2195 19 14.1366 19.5586 13.9819V18.7209H19.5586Z" fill="#F73859"/>
<path d="M15.1994 8.82834L14.5447 9.50823L15.5484 10.5506L16.2031 9.87066C16.4764 10.0459 16.7781 10.1774 17.0991 10.2568V11.2176H18.5186V10.2568C18.8396 10.1774 19.1413 10.0459 19.4146 9.87066L20.0693 10.5506L21.0731 9.50823L20.4183 8.82834C20.5871 8.54453 20.7137 8.23124 20.7902 7.89785H21.7154V6.42377H20.7902C20.7137 6.09039 20.5871 5.77705 20.4183 5.49329L21.0731 4.81339L20.0693 3.77107L19.4146 4.45097C19.1414 4.2757 18.8396 4.14426 18.5186 4.06486V3.104H17.0991V4.06481C16.7781 4.14416 16.4763 4.27565 16.2031 4.45092L15.5484 3.77102L14.5447 4.81334L15.1994 5.49324C15.0306 5.77705 14.904 6.09034 14.8275 6.42377H13.9023V7.89785H14.8275C14.904 8.23119 15.0306 8.54453 15.1994 8.82834ZM17.8089 5.45182C18.7163 5.45182 19.4546 6.21848 19.4546 7.16076C19.4546 8.10304 18.7163 8.86971 17.8089 8.86971C16.9014 8.86971 16.1632 8.10304 16.1632 7.16076C16.1632 6.21848 16.9014 5.45182 17.8089 5.45182Z" fill="#F73859"/>
</svg>
