<svg width="25" height="26" viewBox="0 0 25 26" fill="none" xmlns="http://www.w3.org/2000/svg">
<path d="M24.5851 12.8703V17.0691C24.5353 18.321 22.7474 18.32 22.698 17.0691V15.2051L19.6952 18.208C19.5182 18.385 19.2782 18.4844 19.028 18.4844H14.2667L7.98537 24.7657C7.61691 25.1342 7.01946 25.1342 6.651 24.7657C6.2825 24.3972 6.2825 23.7998 6.651 23.4313L13.2087 16.8737C13.3856 16.6967 13.6256 16.5973 13.8759 16.5973H18.6371L21.4206 13.8138H19.3956C18.1437 13.764 18.1447 11.9761 19.3956 11.9267H23.6416C24.1627 11.9267 24.5851 12.3492 24.5851 12.8703ZM23.6416 19.8997C23.1205 19.8997 22.698 20.3222 22.698 20.8433V24.0985C22.7479 25.3504 24.5358 25.3495 24.5851 24.0985V20.8433C24.5851 20.3222 24.1627 19.8997 23.6416 19.8997ZM19.8674 19.8997C19.3463 19.8997 18.9238 20.3222 18.9238 20.8433V24.0985C18.9737 25.3504 20.7616 25.3495 20.8109 24.0985V20.8433C20.8109 20.3222 20.3885 19.8997 19.8674 19.8997ZM16.0932 19.8997C15.5721 19.8997 15.1496 20.3222 15.1496 20.8433V24.0985C15.1995 25.3504 16.9874 25.3495 17.0367 24.0985V20.8433C17.0367 20.3222 16.6143 19.8997 16.0932 19.8997ZM12.319 22.7776C11.7979 22.7776 11.3755 23.2 11.3755 23.7211V24.0985C11.4253 25.3504 13.2132 25.3495 13.2626 24.0985V23.7211C13.2626 23.2 12.8401 22.7776 12.319 22.7776ZM10.3847 16.8804C10.9058 16.8804 11.3283 16.4579 11.3283 15.9368V15.3573C14.2861 14.2624 13.5718 9.91127 10.3847 9.85093C9.13013 9.79974 9.13622 8.02238 10.3847 7.97058C10.7636 7.97058 11.066 8.17127 11.2146 8.52128C11.4182 9.00093 11.9722 9.22465 12.4519 9.02108C12.9315 8.81746 13.1553 8.2635 12.9517 7.7838C12.6358 7.03976 12.049 6.49567 11.3283 6.24228V5.60491C11.2785 4.35301 9.49057 4.35395 9.44117 5.60491V6.24511C6.48758 7.33995 7.19199 11.6775 10.3848 11.738C11.6323 11.7896 11.6402 13.5799 10.3847 13.6318C10.0178 13.6318 9.65385 13.3924 9.49977 13.0496C9.28615 12.5743 8.72761 12.3621 8.25235 12.5758C7.77703 12.7894 7.56488 13.3479 7.77854 13.8232C8.10058 14.5397 8.71775 15.0901 9.44117 15.3515V15.9368C9.44117 16.4579 9.8636 16.8804 10.3847 16.8804ZM7.12929 20.1109C7.50869 20.1109 7.86653 19.8803 8.01047 19.5048C8.19706 19.0183 7.95381 18.4726 7.46722 18.286C-0.747939 14.9687 1.45841 2.92202 10.3377 2.7743C14.2426 2.7743 17.5648 5.56099 18.2372 9.40038C18.3271 9.91363 18.816 10.2569 19.3293 10.167C19.8426 10.0771 20.1859 9.58815 20.096 9.07486C19.6988 6.80704 18.5082 4.73359 16.7434 3.2365C10.3827 -2.20004 0.401824 2.4175 0.430319 10.7946C0.382764 14.8219 3.02551 18.649 6.79169 20.0481C6.90284 20.0907 7.01696 20.1109 7.12929 20.1109Z" fill="#F73859"/>
</svg>
