<svg width="65" height="65" viewBox="0 0 65 65" fill="none" xmlns="http://www.w3.org/2000/svg">
<path d="M60.2608 9.188H55.6876V4.61475C55.6876 2.0926 53.6353 0.0415039 51.1143 0.0415039H14.5283C12.0073 0.0415039 9.95509 2.0926 9.95509 4.61475V9.188H5.38184C2.86084 9.188 0.808594 11.2391 0.808594 13.7612V25.1944C0.808594 31.498 5.93806 36.6275 12.2417 36.6275H14.5718C18.3167 41.5957 24.0172 45.0079 30.5347 45.6579V50.3472H23.6748C19.8922 50.3472 16.815 53.4244 16.815 57.2071V61.7803C16.815 63.0431 17.8376 64.067 19.1016 64.067H46.5411C47.805 64.067 48.8277 63.0431 48.8277 61.7803V57.2071C48.8277 53.4244 45.7505 50.3472 41.9678 50.3472H35.1079V45.6579C41.6254 45.0079 47.3259 41.5957 51.0709 36.6275H53.4009C59.7046 36.6275 64.834 31.498 64.834 25.1944V13.7612C64.834 11.2391 62.7818 9.188 60.2608 9.188ZM44.2544 57.2071V59.4937H21.3882V57.2071C21.3882 55.9466 22.4132 54.9205 23.6748 54.9205H41.9678C43.2295 54.9205 44.2544 55.9466 44.2544 57.2071ZM5.38184 25.1944V13.7612H9.95509V22.9077C9.95509 26.145 10.6405 29.2222 11.8593 32.0154C8.25727 31.8124 5.38184 28.8461 5.38184 25.1944ZM32.8213 41.2007C22.7345 41.2007 14.5283 32.9946 14.5283 22.9077V4.61475H51.1143V22.9077C51.1143 32.9946 42.9082 41.2007 32.8213 41.2007ZM60.2608 25.1944C60.2608 28.8461 57.3854 31.8124 53.7839 32.0154C55.0021 29.2222 55.6876 26.145 55.6876 22.9077V13.7612H60.2608V25.1944Z" fill="#F73859"/>
</svg>
