<svg width="69" height="68" viewBox="0 0 69 68" fill="none" xmlns="http://www.w3.org/2000/svg">
<path d="M68.1839 51.0639H56.9017V41.4502C56.9017 37.3529 54.1393 33.7449 50.1839 32.676L40.639 30.0966V27.5814C43.076 25.6824 44.6479 22.7228 44.6479 19.4012V11.1802C46.2343 9.95221 47.2585 8.03123 47.2585 5.8745V0.0415039H32.7663C27.9146 0.0415039 23.9674 3.9887 23.9674 8.84046V19.4584C23.9674 22.7961 25.5625 25.7668 28.0291 27.6526V30.0966L18.4842 32.676C14.5288 33.7449 11.7664 37.3529 11.7664 41.4502V51.0639H0.484375L4.0222 59.4874L0.713257 67.741H67.9549L64.6459 59.4874L68.1839 51.0639ZM52.9859 41.4502V51.0639H35.3581L49.1706 36.4587C51.4174 37.07 52.9859 39.121 52.9859 41.4502ZM40.7703 34.1885L44.8781 35.2985L39.3776 41.1146C39.0261 40.296 38.543 39.5321 37.9387 38.8554L37.0478 37.8578L40.7703 34.1885ZM31.6383 37.8378L30.7295 38.8555C30.0976 39.5632 29.5993 40.3665 29.2445 41.2278L23.5617 35.3604L27.9017 34.1876L31.6383 37.8378ZM32.5327 44.3938C32.5327 43.3115 32.9296 42.2709 33.6505 41.4636L34.3341 40.698L35.0177 41.4634C35.7386 42.2708 36.1356 43.3115 36.1356 44.3938V44.5426L34.3173 46.4651L32.5327 44.6226V44.3938ZM27.8834 8.84046C27.8834 6.14795 30.0738 3.9575 32.7663 3.9575H43.3427V5.8745C43.3427 7.41414 42.0901 8.66671 40.5506 8.66671H32.408C30.7445 8.66671 29.1919 9.15039 27.8834 9.98447V8.84046ZM27.8834 17.1072C27.8834 14.6124 29.9132 12.5826 32.408 12.5826H40.5506C40.6114 12.5826 40.6716 12.5795 40.732 12.5779V19.4012C40.732 22.9594 37.8372 25.8541 34.2791 25.8541C30.7525 25.8541 27.8834 22.9849 27.8834 19.4583V17.1072ZM34.279 29.77C35.121 29.77 35.9388 29.6666 36.7232 29.4764V32.6791L34.353 35.0152L31.9449 32.6626V29.5002C32.6956 29.6748 33.4761 29.77 34.279 29.77ZM15.6824 41.4502C15.6824 39.2087 17.1354 37.2252 19.2473 36.5343L33.3194 51.0639H15.6824V41.4502ZM6.34382 63.825L8.2562 59.3344L6.57283 54.9798H62.0957L60.4123 59.3344L62.3247 63.825H6.34382Z" fill="#F73859"/>
</svg>
