<svg width="73" height="72" viewBox="0 0 73 72" fill="none" xmlns="http://www.w3.org/2000/svg">
<path d="M68.0769 38.4665V31.7838C68.0769 30.6203 67.1336 29.677 65.9701 29.677C61.6177 29.677 57.5601 30.0443 53.7264 30.7943C51.4917 28.6362 48.7673 27.0705 45.8171 26.2147C49.034 23.5072 51.0821 19.4533 51.0821 14.9295C51.0821 6.72016 44.4664 0.0415039 36.3346 0.0415039C28.2028 0.0415039 21.5871 6.72016 21.5871 14.9295C21.5871 19.4533 23.6352 23.5072 26.8522 26.2145C23.902 27.0705 21.1777 28.6362 18.9429 30.7941C15.1093 30.0443 11.0516 29.6768 6.69927 29.6768C5.53576 29.6768 4.59248 30.6201 4.59248 31.7836V38.4663C2.14032 39.336 0.378906 41.6778 0.378906 44.4243V48.6379C0.378906 51.3845 2.14032 53.7262 4.59248 54.5959V61.2786C4.59248 62.4422 5.53576 63.3854 6.69927 63.3854C17.7148 63.3854 26.7604 65.9955 35.1662 71.5992C35.8705 72.0686 36.7984 72.0697 37.5035 71.5992C45.9093 65.9955 54.9547 63.3854 65.9704 63.3854C67.1339 63.3854 68.0771 62.4422 68.0771 61.2786V54.5959C70.5293 53.7262 72.2907 51.3845 72.2907 48.6379V44.4243C72.2904 41.6779 70.529 39.3362 68.0769 38.4665ZM25.8007 14.9295C25.8007 9.04352 30.5262 4.25508 36.3346 4.25508C42.143 4.25508 46.8685 9.04352 46.8685 14.9295C46.8685 20.7379 42.143 25.4634 36.3346 25.4634C30.5262 25.4634 25.8007 20.7379 25.8007 14.9295ZM6.69913 50.7448C5.53745 50.7448 4.59234 49.7997 4.59234 48.6381V44.4245C4.59234 43.2628 5.53745 42.3177 6.69913 42.3177C7.86081 42.3177 8.80591 43.2628 8.80591 44.4245V48.6381C8.80591 49.7997 7.86081 50.7448 6.69913 50.7448ZM34.2278 66.0661C26.5798 61.6923 18.3727 59.4817 8.80591 59.2023V54.5961C11.2581 53.7264 13.0195 51.3846 13.0195 48.6381V44.4245C13.0195 41.6779 11.2581 39.3362 8.80591 38.4665V33.9203C18.7051 34.2045 26.6622 36.5355 34.2278 41.3525V66.0661ZM36.3346 37.7023C32.446 35.2487 28.3985 33.3806 24.0776 32.0678C26.4518 30.5247 29.2467 29.677 32.121 29.677H40.5482C43.4225 29.677 46.2174 30.5247 48.5916 32.0678C44.2707 33.3806 40.223 35.2487 36.3346 37.7023ZM63.8633 59.2023C54.2966 59.4817 46.0893 61.6928 38.4414 66.0664V41.3542C46.0071 36.5368 53.9636 34.2043 63.8633 33.9203V38.4665C61.4111 39.3362 59.6497 41.6779 59.6497 44.4245V48.6381C59.6497 51.3846 61.4111 53.7264 63.8633 54.5961V59.2023ZM68.0769 48.6381C68.0769 49.7997 67.1318 50.7448 65.9701 50.7448C64.8084 50.7448 63.8633 49.7997 63.8633 48.6381V44.4245C63.8633 43.2628 64.8084 42.3177 65.9701 42.3177C67.1318 42.3177 68.0769 43.2628 68.0769 44.4245V48.6381Z" fill="#F73859"/>
</svg>
