<svg width="79" height="62" viewBox="0 0 79 62" fill="none" xmlns="http://www.w3.org/2000/svg">
<path d="M77.0535 18.3106L40.3718 0.283251C40.0479 0.124023 39.6948 0.0415039 39.3374 0.0415039C38.98 0.0415039 38.6269 0.124023 38.303 0.283251L1.62128 18.3106C1.19981 18.518 0.843247 18.8477 0.593437 19.2609C0.343628 19.6742 0.210938 20.154 0.210938 20.6439C0.210937 21.1338 0.343628 21.6135 0.593437 22.0268C0.843247 22.4401 1.19981 22.7698 1.62128 22.9771L14.8829 29.4953V48.9726C14.8829 56.3149 25.3984 61.8493 39.3374 61.8493C53.2765 61.8493 63.7919 56.3149 63.7919 48.9726V29.4953L68.6828 27.09V41.2466C68.6828 41.9296 68.9404 42.5847 69.399 43.0676C69.8576 43.5506 70.4796 43.8219 71.1282 43.8219C71.7768 43.8219 72.3988 43.5506 72.8574 43.0676C73.316 42.5847 73.5737 41.9296 73.5737 41.2466V24.6872L77.0535 22.9771C77.475 22.7698 77.8316 22.4401 78.0814 22.0268C78.3312 21.6135 78.4639 21.1338 78.4639 20.6439C78.4639 20.154 78.3312 19.6742 78.0814 19.2609C77.8316 18.8477 77.475 18.518 77.0535 18.3106ZM58.901 48.9726C58.901 52.1248 51.281 56.6986 39.3374 56.6986C27.3938 56.6986 19.7738 52.1248 19.7738 48.9726V31.8981L38.303 41.0045C38.6269 41.1637 38.98 41.2463 39.3374 41.2463C39.6948 41.2463 40.0479 41.1637 40.3718 41.0045L52.5991 34.9937C53.1766 34.6982 53.6207 34.1755 53.8354 33.5382C54.0501 32.9009 54.0181 32.2003 53.7465 31.5876C53.4749 30.9749 52.9853 30.4993 52.3836 30.2635C51.7818 30.0276 51.1161 30.0505 50.5302 30.3272L39.3374 35.8384L8.43674 20.6439L39.3374 5.44938L70.2356 20.6439L60.312 25.5216C59.8518 25.751 59.4721 26.1273 59.2266 26.597C58.9812 27.0667 58.8827 27.606 58.945 28.1381C58.9266 28.2145 58.9119 28.2919 58.901 28.3699V48.9726Z" fill="#F73859"/>
</svg>
