<svg width="67" height="62" viewBox="0 0 67 62" fill="none" xmlns="http://www.w3.org/2000/svg">
<path d="M66.2994 50.2604V0.0415039H0.371094V50.2604H26.7924L24.2171 57.9863H15.9518V61.8493H50.7187V57.9863H42.4535L39.8781 50.2604H66.2994ZM4.23408 3.90449H62.4365V46.3974H4.23408V3.90449ZM38.3814 57.9863H28.289L30.8644 50.2604H35.806L38.3814 57.9863Z" fill="#F73859"/>
<path d="M5.9375 20.1539L18.2243 25.0685V34.6992L33.333 40.7426L48.4416 34.6992V25.0685L52.7584 23.3418V39.5793H57.0752V18.6927L33.333 9.1958L5.9375 20.1539ZM44.1249 31.7765L33.333 36.0933L22.5411 31.7765V26.7952L33.333 31.112L44.1249 26.7952V31.7765ZM33.333 26.4628L17.5608 20.1539L33.333 13.845L49.1051 20.1539L33.333 26.4628Z" fill="#F73859"/>
</svg>
