<svg width="117" height="118" viewBox="0 0 117 118" fill="none" xmlns="http://www.w3.org/2000/svg">
<circle cx="1.743" cy="2.35189" r="1.57504" fill="#F73859"/>
<circle cx="30.0948" cy="2.35091" r="1.57504" fill="#F73859"/>
<circle cx="58.45" cy="2.35091" r="1.57504" fill="#F73859"/>
<circle cx="86.7938" cy="2.35091" r="1.57504" fill="#F73859"/>
<circle cx="115.149" cy="2.35091" r="1.57504" fill="#F73859"/>
<circle cx="1.743" cy="30.7035" r="1.57504" fill="#F73859"/>
<circle cx="30.0948" cy="30.7025" r="1.57504" fill="#F73859"/>
<circle cx="58.45" cy="30.7025" r="1.57504" fill="#F73859"/>
<circle cx="86.7977" cy="30.7035" r="1.57504" fill="#F73859"/>
<circle cx="115.149" cy="30.7035" r="1.57504" fill="#F73859"/>
<circle cx="1.743" cy="59.0531" r="1.57504" fill="#F73859"/>
<circle cx="30.0948" cy="59.0521" r="1.57504" fill="#F73859"/>
<circle cx="58.45" cy="59.0521" r="1.57504" fill="#F73859"/>
<circle cx="86.7977" cy="59.0531" r="1.57504" fill="#F73859"/>
<circle cx="115.149" cy="59.0521" r="1.57504" fill="#F73859"/>
<circle cx="1.743" cy="87.4027" r="1.57504" fill="#F73859"/>
<circle cx="30.0948" cy="87.4017" r="1.57504" fill="#F73859"/>
<circle cx="58.45" cy="87.4017" r="1.57504" fill="#F73859"/>
<circle cx="86.7938" cy="87.4027" r="1.57504" fill="#F73859"/>
<circle cx="115.149" cy="87.4027" r="1.57504" fill="#F73859"/>
<circle cx="1.743" cy="115.753" r="1.57504" fill="#F73859"/>
<circle cx="30.0948" cy="115.752" r="1.57504" fill="#F73859"/>
<circle cx="58.45" cy="115.752" r="1.57504" fill="#F73859"/>
<circle cx="86.7938" cy="115.753" r="1.57504" fill="#F73859"/>
<circle cx="115.149" cy="115.753" r="1.57504" fill="#F73859"/>
</svg>
