<svg width="37" height="38" viewBox="0 0 37 38" fill="none" xmlns="http://www.w3.org/2000/svg">
<path d="M20.6122 34.9927C20.6122 36.2964 19.5554 37.3532 18.2517 37.3532C16.948 37.3532 15.8912 36.2964 15.8912 34.9927C15.8912 33.6889 16.948 32.6322 18.2517 32.6322C19.5554 32.6322 20.6122 33.6889 20.6122 34.9927ZM9.22778 10.4706C8.87125 9.76563 8.01066 9.48314 7.30542 9.83995C4.74041 11.1378 2.41542 12.8948 0.395821 15.0619C-0.142887 15.64 -0.111034 16.5453 0.466792 17.084C0.742572 17.3408 1.09268 17.4679 1.44194 17.4679C1.82502 17.4679 2.20697 17.3151 2.4889 17.0128C4.27826 15.0926 6.33362 13.5383 8.59714 12.3929C9.30238 12.0361 9.58459 11.1755 9.22778 10.4706ZM36.2509 15.0619C34.1704 12.8299 31.7688 11.0344 29.1127 9.72595C28.4039 9.37697 27.5464 9.66839 27.1971 10.3773C26.8481 11.0859 27.1395 11.9437 27.8484 12.2926C30.1921 13.4475 32.3148 15.0354 34.1578 17.0128C34.4395 17.3151 34.8217 17.4679 35.2048 17.4679C35.5541 17.4679 35.9042 17.3408 36.1797 17.084C36.7575 16.5453 36.7893 15.64 36.2509 15.0619ZM18.3229 15.54C13.6238 15.54 9.12244 17.4685 5.64822 20.9701C5.09163 21.5309 5.09526 22.4367 5.65604 22.993C5.9349 23.2699 6.29925 23.4082 6.66361 23.4082C7.03159 23.4082 7.39958 23.2671 7.67899 22.9852C10.6123 20.0293 14.3924 18.4012 18.3229 18.4012C22.2526 18.4012 26.0328 20.029 28.9669 22.9855C29.5235 23.546 30.4293 23.5496 30.9901 22.993C31.5509 22.4364 31.5543 21.5306 30.9977 20.9698C27.5223 17.4682 23.021 15.54 18.3229 15.54ZM18.3098 23.9056C18.3095 23.9056 18.309 23.9056 18.3087 23.9056H18.2056C18.205 23.9056 18.205 23.9056 18.2045 23.9056C15.7708 23.9056 13.1027 25.0512 11.2418 26.895C10.6804 27.4511 10.6763 28.3569 11.2323 28.9183C11.512 29.2005 11.8802 29.3418 12.2485 29.3418C12.6126 29.3418 12.9764 29.2038 13.2555 28.9275C14.5805 27.6148 16.523 26.7668 18.2048 26.7668H18.2053H18.309H18.3095C19.991 26.7668 21.9338 27.6148 23.2588 28.9275C23.8198 29.4835 24.7257 29.4796 25.2817 28.9183C25.8377 28.3569 25.8336 27.4511 25.2725 26.895C23.4113 25.0509 20.7435 23.9056 18.3098 23.9056ZM12.6623 12.3278C12.9415 12.6073 13.3078 12.747 13.6738 12.747C14.0401 12.747 14.4061 12.6073 14.6853 12.3278L18.2517 8.7617L21.8181 12.3278C22.0973 12.6073 22.4636 12.747 22.8296 12.747C23.1959 12.747 23.5619 12.6073 23.8411 12.3278C24.3999 11.7693 24.3999 10.8634 23.8411 10.3049L20.2749 6.73847L23.8411 3.17205C24.3999 2.6135 24.3999 1.70765 23.8411 1.1491C23.2825 0.590274 22.3767 0.590274 21.8181 1.1491L18.2517 4.71524L14.6853 1.1491C14.1267 0.590274 13.2209 0.590274 12.6623 1.1491C12.1035 1.70765 12.1035 2.6135 12.6623 3.17205L16.2285 6.73847L12.6623 10.3049C12.1035 10.8634 12.1035 11.7693 12.6623 12.3278Z" fill="#F73859"/>
</svg>
