<svg width="42" height="42" viewBox="0 0 42 42" fill="none" xmlns="http://www.w3.org/2000/svg">
<path d="M36.49 7.40934L36.2596 3.51693C36.2185 2.87505 35.6836 2.3813 35.0335 2.42245C34.3916 2.46359 33.9061 3.00672 33.939 3.6486L34.0048 4.79246C30.6473 2.28255 26.5738 0.916504 22.2947 0.916504C17.0609 0.916504 12.1398 2.95734 8.44492 6.65225C7.99232 7.10486 7.99232 7.83726 8.44492 8.29809C9.07034 8.92351 9.86034 8.52851 10.0908 8.29809C13.3495 5.03933 17.6863 3.23714 22.3029 3.23714C25.9731 3.23714 29.4623 4.37277 32.3754 6.47944L31.3715 6.54527C30.7296 6.58642 30.2441 7.12955 30.277 7.77142C30.3099 8.38861 30.8283 8.86591 31.4373 8.86591C31.462 8.86591 35.3955 8.63549 35.3955 8.63549C36.0374 8.59434 36.5229 8.05122 36.49 7.40934Z" fill="#F73859"/>
<path d="M17.8269 37.1836C9.54838 34.97 4.29815 27.0617 5.12107 18.7996L5.67242 19.6308C5.89461 19.9682 6.60232 20.3714 7.27712 19.9599C7.82024 19.6225 7.96014 18.8901 7.60629 18.3552L5.46669 15.0965C5.29388 14.8414 5.03055 14.6603 4.7343 14.5945C4.42982 14.5369 4.11711 14.5945 3.862 14.7591L0.611469 16.8987C0.076571 17.2525 -0.0715546 17.9685 0.282301 18.5034C0.636156 19.0383 1.3521 19.1864 1.88699 18.8325L2.84981 18.1989C1.72241 27.7118 7.72149 36.8791 17.2262 39.422C17.325 39.4467 18.3536 39.5701 18.6499 38.5991C18.8391 37.9901 18.4524 37.3482 17.8269 37.1836Z" fill="#F73859"/>
<path d="M41.2252 15.4328C41.0607 14.8156 40.4188 14.4453 39.8016 14.6099C39.1844 14.7745 38.8141 15.4164 38.9787 16.0336C41.1923 24.3121 36.979 32.8211 29.4081 36.2362L29.8525 35.3392C30.1405 34.7632 29.9101 34.072 29.3341 33.7839C28.758 33.4959 28.0585 33.7263 27.7787 34.3024L26.0342 37.7833C25.7461 38.3594 25.9765 39.0506 26.5526 39.3386L30.0335 41.0832C30.1981 41.1655 31.128 41.3713 31.5889 40.5648C31.9098 40.0052 31.6465 39.2975 31.0704 39.0095L30.0253 38.4828C38.8306 34.7138 43.7681 24.9458 41.2252 15.4328Z" fill="#F73859"/>
<path d="M16.9378 24.673L19.028 22.4923C19.8427 21.6447 21.1594 20.4432 21.1594 18.6904C21.1594 17.5959 20.32 15.1519 17.3986 15.1519C15.1767 15.1519 13.6955 16.8635 13.1523 17.7029L15.2179 18.9291C15.868 17.8922 16.5592 17.3737 17.2834 17.3737C18.6906 17.3737 18.6412 18.3448 18.6412 18.7316C18.6412 19.752 17.4233 20.8958 16.7403 21.5953L13.3498 25.068V26.9854H21.505V24.673H16.9378Z" fill="#F73859"/>
<path d="M30.1304 21.9834V19.9672H27.6534V21.9834H26.0158L29.9329 15.4165H27.1267L23.0039 22.2467V24.2135H27.6534V26.9785H30.1304V24.2135H31.4388V21.9834H30.1304Z" fill="#F73859"/>
<path d="M34.2512 13.9271C33.8562 13.9271 33.5023 14.0834 33.1896 14.4044V12.561H32.1445V17.729H33.1896V15.7046C33.1896 15.4083 33.2637 14.8158 33.9714 14.8158C34.3911 14.8158 34.6051 15.1039 34.6051 15.6799V17.729H35.6502V15.4577C35.6502 14.7171 35.1893 13.9271 34.2512 13.9271Z" fill="#F73859"/>
</svg>
