<svg width="38" height="32" viewBox="0 0 38 32" fill="none" xmlns="http://www.w3.org/2000/svg">
<path d="M35.1765 0.123535H3.46397C2.05802 0.123535 0.914062 1.2675 0.914062 2.67344V24.1885C0.914062 25.5945 2.05802 26.7384 3.46397 26.7384H21.956L21.3977 30.1437C21.2926 30.7846 21.5046 31.3653 21.9649 31.6966C22.4251 32.028 23.0426 32.0457 23.6174 31.7428L27.6071 29.6429C27.7184 29.5857 28.0251 29.5857 28.1364 29.6429L32.1261 31.7428C32.399 31.8865 32.6817 31.958 32.9526 31.958C33.2521 31.958 33.5371 31.8705 33.7787 31.6965C34.2389 31.3651 34.4509 30.7843 34.346 30.1434L33.7878 26.7383H35.1767C36.5826 26.7383 37.7266 25.5943 37.7266 24.1884V2.67344C37.7264 1.26735 36.5825 0.123535 35.1765 0.123535ZM27.8718 22.3678C25.4214 22.3678 23.4277 20.374 23.4277 17.9236C23.4277 15.4732 25.4214 13.4795 27.8718 13.4795C30.3222 13.4795 32.316 15.4732 32.316 17.9236C32.316 20.374 30.3222 22.3678 27.8718 22.3678ZM29.1545 27.7089C28.4112 27.3175 27.3323 27.3175 26.5891 27.7089L23.7685 29.1935L24.6652 23.7237C25.6163 24.2516 26.7094 24.5532 27.872 24.5532C29.0346 24.5532 30.1275 24.2515 31.0787 23.7237L31.4281 25.8562C31.429 25.8597 31.4293 25.8635 31.43 25.867L31.9754 29.1936L29.1545 27.7089ZM35.5408 24.1885C35.5408 24.386 35.3739 24.5528 35.1765 24.5528H33.4293L33.0302 22.1182C33.0286 22.1085 33.026 22.0994 33.0241 22.0897C33.9472 20.9506 34.5017 19.5008 34.5017 17.9236C34.5017 14.2679 31.5277 11.2939 27.872 11.2939C24.2163 11.2939 21.2422 14.2679 21.2422 17.9236C21.2422 19.5008 21.7968 20.9503 22.7198 22.0897C22.718 22.0992 22.7153 22.1085 22.7137 22.118L22.3143 24.5547C22.3021 24.5543 22.2903 24.5528 22.2781 24.5528H3.46397C3.26653 24.5528 3.0997 24.386 3.0997 24.1885V2.67344C3.0997 2.47601 3.26653 2.30917 3.46397 2.30917H35.1765C35.3739 2.30917 35.5408 2.47601 35.5408 2.67344V24.1885Z" fill="#F73859"/>
<path d="M31.3126 6.4126H6.54204C5.93836 6.4126 5.44922 6.90174 5.44922 7.50541C5.44922 8.10909 5.93836 8.59823 6.54204 8.59823H31.3126C31.9162 8.59823 32.4054 8.10909 32.4054 7.50541C32.4054 6.90174 31.9162 6.4126 31.3126 6.4126Z" fill="#F73859"/>
<path d="M17.0331 12.3384H6.54204C5.93836 12.3384 5.44922 12.8275 5.44922 13.4312C5.44922 14.0349 5.93836 14.524 6.54204 14.524H17.0331C17.6368 14.524 18.1259 14.0349 18.1259 13.4312C18.1259 12.8275 17.6368 12.3384 17.0331 12.3384Z" fill="#F73859"/>
</svg>
