<svg width="35" height="38" viewBox="0 0 35 38" fill="none" xmlns="http://www.w3.org/2000/svg">
<path d="M4.9041 24.5234C4.6726 24.5234 4.45059 24.425 4.2869 24.2499C4.12321 24.0747 4.03125 23.8372 4.03125 23.5895V16.9276C4.03125 16.6799 4.12321 16.4423 4.2869 16.2672C4.45059 16.092 4.6726 15.9937 4.9041 15.9937C5.13559 15.9937 5.3576 16.092 5.52129 16.2672C5.68498 16.4423 5.77694 16.6799 5.77694 16.9276V23.5895C5.77694 23.8372 5.68498 24.0747 5.52129 24.2499C5.3576 24.425 5.13559 24.5234 4.9041 24.5234Z" fill="#F73859"/>
<path d="M8.83495 9.64786C7.99999 9.64786 7.18377 9.38294 6.48952 8.8866C5.79527 8.39026 5.25417 7.6848 4.93464 6.85942C4.61511 6.03403 4.53151 5.12581 4.6944 4.24959C4.8573 3.37336 5.25937 2.5685 5.84978 1.93678C6.44019 1.30506 7.19242 0.874856 8.01135 0.700565C8.83027 0.526274 9.67911 0.615727 10.4505 0.957611C11.2219 1.2995 11.8813 1.87846 12.3451 2.62128C12.809 3.36411 13.0566 4.23743 13.0566 5.13082C13.0554 6.32841 12.6102 7.47657 11.8188 8.32339C11.0273 9.17022 9.95423 9.64654 8.83495 9.64786ZM8.83495 2.48161C8.34525 2.48161 7.86655 2.63698 7.45937 2.92808C7.0522 3.21918 6.73485 3.63293 6.54745 4.11701C6.36005 4.60109 6.31102 5.13376 6.40655 5.64765C6.50209 6.16155 6.7379 6.63359 7.08417 7.00409C7.43044 7.37459 7.87162 7.6269 8.35191 7.72913C8.83221 7.83135 9.33004 7.77888 9.78247 7.57837C10.2349 7.37786 10.6216 7.0383 10.8937 6.60264C11.1657 6.16698 11.3109 5.65478 11.3109 5.13082C11.3102 4.42846 11.0491 3.7551 10.5849 3.25845C10.1207 2.76181 9.49139 2.48243 8.83495 2.48161Z" fill="#F73859"/>
<path d="M22.6 16.6353C22.4314 16.6354 22.2665 16.5833 22.125 16.4853C21.9835 16.3873 21.8716 16.2475 21.8027 16.0829C21.7339 15.9183 21.711 15.7359 21.737 15.5577C21.7629 15.3795 21.8365 15.2132 21.9488 15.0788L26.6913 9.3906C26.7677 9.29907 26.8602 9.22453 26.9636 9.17126C27.0669 9.11798 27.179 9.087 27.2936 9.0801C27.4081 9.07319 27.5228 9.09048 27.631 9.13099C27.7393 9.1715 27.8391 9.23444 27.9246 9.3162C28.0102 9.39796 28.0798 9.49695 28.1296 9.60752C28.1794 9.71808 28.2084 9.83806 28.2148 9.9606C28.2213 10.0831 28.2051 10.2058 28.1673 10.3217C28.1294 10.4375 28.0706 10.5443 27.9942 10.6358L23.2517 16.3209C23.17 16.4195 23.0696 16.4986 22.9573 16.5528C22.845 16.607 22.7232 16.6351 22.6 16.6353Z" fill="#F73859"/>
<path d="M31.9216 25.0684H16.2609C16.0294 25.0684 15.8074 24.97 15.6437 24.7949C15.4801 24.6197 15.3881 24.3822 15.3881 24.1345C15.3881 23.8868 15.4801 23.6492 15.6437 23.4741C15.8074 23.299 16.0294 23.2006 16.2609 23.2006H31.9216C32.1531 23.2006 32.3751 23.1022 32.5388 22.927C32.7024 22.7519 32.7944 22.5143 32.7944 22.2666V3.43701C32.7944 3.18931 32.7024 2.95177 32.5388 2.77663C32.3751 2.60148 32.1531 2.50309 31.9216 2.50309H14.7986C14.5671 2.50309 14.3451 2.40469 14.1814 2.22955C14.0177 2.05441 13.9258 1.81686 13.9258 1.56917C13.9258 1.32148 14.0177 1.08394 14.1814 0.908792C14.3451 0.733648 14.5671 0.635254 14.7986 0.635254H31.9216C32.616 0.635254 33.2821 0.930438 33.7731 1.45587C34.2642 1.9813 34.5401 2.69393 34.5401 3.43701V22.2666C34.5401 23.0097 34.2642 23.7223 33.7731 24.2478C33.2821 24.7732 32.616 25.0684 31.9216 25.0684Z" fill="#F73859"/>
<path d="M8.83714 37.4683H4.9041C4.6726 37.4683 4.45059 37.3699 4.2869 37.1948C4.12321 37.0196 4.03125 36.7821 4.03125 36.5344V23.5897C4.03125 23.342 4.12321 23.1044 4.2869 22.9293C4.45059 22.7542 4.6726 22.6558 4.9041 22.6558C5.13559 22.6558 5.3576 22.7542 5.52129 22.9293C5.68498 23.1044 5.77694 23.342 5.77694 23.5897V35.6005H8.83714C9.06864 35.6005 9.29065 35.6989 9.45434 35.874C9.61803 36.0492 9.70999 36.2867 9.70999 36.5344C9.70999 36.7821 9.61803 37.0196 9.45434 37.1948C9.29065 37.3699 9.06864 37.4683 8.83714 37.4683Z" fill="#F73859"/>
<path d="M12.7708 37.4681H8.83718C8.60569 37.4681 8.38368 37.3697 8.21999 37.1945C8.0563 37.0194 7.96433 36.7818 7.96433 36.5342V24.1342C7.96433 23.8865 8.0563 23.649 8.21999 23.4738C8.38368 23.2987 8.60569 23.2003 8.83718 23.2003C9.06868 23.2003 9.29069 23.2987 9.45438 23.4738C9.61807 23.649 9.71003 23.8865 9.71003 24.1342V35.6002H11.898V17.943C11.8979 17.5554 12.0053 17.1765 12.2066 16.8542C12.4078 16.5319 12.6939 16.2807 13.0286 16.1324C13.3633 15.9841 13.7315 15.9454 14.0868 16.0211C14.4421 16.0968 14.7684 16.2835 15.0245 16.5577L16.3925 18.0196C16.4939 18.1285 16.6144 18.2149 16.7472 18.2737C16.8799 18.3324 17.0222 18.3625 17.1659 18.362H21.2281C21.3737 18.362 21.5178 18.331 21.6521 18.2706C21.7863 18.2103 21.9079 18.1219 22.0098 18.0106C22.1117 17.8993 22.1918 17.7674 22.2454 17.6226C22.299 17.4778 22.3251 17.323 22.3221 17.1672C22.3099 16.5353 21.8019 16.0216 21.1897 16.0216H17.9782C17.7468 16.0214 17.5249 15.9228 17.3614 15.7477L15.4825 13.7379C15.1416 13.371 14.736 13.0802 14.2893 12.8822C13.8427 12.6843 13.3637 12.5832 12.8802 12.5848H12.2029L10.8837 13.7584C10.309 14.2695 9.58532 14.5492 8.83805 14.5492C8.09079 14.5492 7.36708 14.2695 6.79239 13.7584L5.47207 12.5848H4.90413C4.09265 12.5858 3.31466 12.9311 2.74085 13.5451C2.16705 14.159 1.84427 14.9915 1.84335 15.8597C1.84335 16.1074 1.75139 16.345 1.5877 16.5201C1.42401 16.6952 1.202 16.7936 0.970503 16.7936C0.73901 16.7936 0.516998 16.6952 0.353307 16.5201C0.189616 16.345 0.0976562 16.1074 0.0976562 15.8597C0.0990425 14.4962 0.605883 13.189 1.50697 12.2249C2.40806 11.2607 3.6298 10.7184 4.90413 10.717H5.78745C5.99134 10.717 6.18877 10.7935 6.34549 10.933L7.90731 12.322C8.16871 12.555 8.49815 12.6826 8.83834 12.6826C9.17854 12.6826 9.50798 12.555 9.76938 12.322L11.33 10.9324C11.4868 10.7928 11.6842 10.7164 11.8881 10.7163H12.8814C13.5942 10.7142 14.3003 10.8634 14.9588 11.1553C15.6173 11.4472 16.2152 11.8759 16.7178 12.4167L18.3413 14.1538H21.1926C22.7486 14.1538 24.0393 15.4886 24.0701 17.1298C24.0778 17.534 24.01 17.9356 23.8708 18.3114C23.7315 18.6871 23.5236 19.0293 23.2592 19.318C22.9948 19.6067 22.6793 19.8361 22.331 19.9926C21.9827 20.1492 21.6088 20.2298 21.231 20.2298H17.1636C16.7906 20.231 16.4211 20.1529 16.0765 20.0002C15.7319 19.8475 15.419 19.6231 15.156 19.3401L13.7903 17.877C13.7791 17.8651 13.7652 17.8568 13.7499 17.8527C13.7346 17.8486 13.7186 17.8491 13.7036 17.8539C13.6866 17.8601 13.6718 17.8718 13.6613 17.8875C13.6509 17.9031 13.6453 17.9219 13.6454 17.9411V36.5323C13.6456 36.6552 13.6232 36.777 13.5793 36.8907C13.5354 37.0043 13.471 37.1076 13.3898 37.1945C13.3085 37.2815 13.212 37.3504 13.1058 37.3973C12.9996 37.4443 12.8857 37.4683 12.7708 37.4681Z" fill="#F73859"/>
<path d="M2.93732 26.6279C2.18443 26.6271 1.4626 26.3067 0.930225 25.7371C0.397852 25.1675 0.0984265 24.3951 0.0976562 23.5896V15.8592C0.0976563 15.6115 0.189616 15.374 0.353307 15.1988C0.516998 15.0237 0.73901 14.9253 0.970503 14.9253C1.202 14.9253 1.42401 15.0237 1.5877 15.1988C1.75139 15.374 1.84335 15.6115 1.84335 15.8592V23.5896C1.84335 23.9 1.95861 24.1977 2.16377 24.4172C2.36892 24.6367 2.64718 24.7601 2.93732 24.7601C3.22746 24.7601 3.50571 24.6367 3.71087 24.4172C3.91603 24.1977 4.03129 23.9 4.03129 23.5896C4.03129 23.3419 4.12325 23.1043 4.28694 22.9292C4.45063 22.754 4.67264 22.6556 4.90413 22.6556C5.13563 22.6556 5.35764 22.754 5.52133 22.9292C5.68502 23.1043 5.77698 23.3419 5.77698 23.5896C5.77621 24.3951 5.47678 25.1675 4.94441 25.7371C4.41204 26.3067 3.69021 26.6271 2.93732 26.6279Z" fill="#F73859"/>
<path d="M27.5632 37.4679H0.970503C0.73901 37.4679 0.516998 37.3695 0.353307 37.1944C0.189616 37.0193 0.0976562 36.7817 0.0976562 36.534C0.0976562 36.2863 0.189616 36.0488 0.353307 35.8736C0.516998 35.6985 0.73901 35.6001 0.970503 35.6001H27.5632C27.7947 35.6001 28.0167 35.6985 28.1804 35.8736C28.3441 36.0488 28.4361 36.2863 28.4361 36.534C28.4361 36.7817 28.3441 37.0193 28.1804 37.1944C28.0167 37.3695 27.7947 37.4679 27.5632 37.4679Z" fill="#F73859"/>
<path d="M22.8162 10.9464H18.2908C18.0593 10.9464 17.8373 10.8481 17.6736 10.6729C17.5099 10.4978 17.418 10.2602 17.418 10.0125C17.418 9.76484 17.5099 9.52729 17.6736 9.35215C17.8373 9.17701 18.0593 9.07861 18.2908 9.07861H22.8162C23.0477 9.07861 23.2697 9.17701 23.4334 9.35215C23.5971 9.52729 23.6891 9.76484 23.6891 10.0125C23.6891 10.2602 23.5971 10.4978 23.4334 10.6729C23.2697 10.8481 23.0477 10.9464 22.8162 10.9464Z" fill="#F73859"/>
<path d="M27.3417 6.72379H18.2908C18.0593 6.72379 17.8373 6.6254 17.6736 6.45025C17.5099 6.27511 17.418 6.03756 17.418 5.78987C17.418 5.54218 17.5099 5.30464 17.6736 5.12949C17.8373 4.95435 18.0593 4.85596 18.2908 4.85596H27.3417C27.5731 4.85596 27.7952 4.95435 27.9589 5.12949C28.1225 5.30464 28.2145 5.54218 28.2145 5.78987C28.2145 6.03756 28.1225 6.27511 27.9589 6.45025C27.7952 6.6254 27.5731 6.72379 27.3417 6.72379Z" fill="#F73859"/>
</svg>
