<svg width="60" height="47" viewBox="0 0 60 47" fill="none" xmlns="http://www.w3.org/2000/svg">
<path d="M0.659709 2.56448C3.65935 14.1718 6.78942 25.9095 10.0499 37.5168C10.702 39.734 11.2237 46.1245 14.2233 46.6462C16.1796 47.0375 19.3097 45.4724 21.1355 44.8203C24.396 43.777 27.6565 42.864 31.0474 41.8207C38.3509 39.6036 45.7848 37.3864 53.2187 35.1693C54.9141 34.6476 62.0872 33.3434 58.5659 30.3438C55.6966 27.8658 51.2624 26.1704 48.0019 24.3445C41.2201 20.5623 34.4383 16.9106 27.5261 13.2589C20.8747 9.60712 14.2233 6.0858 7.57193 2.56448C5.87648 1.65154 0.00761229 -2.26103 0.659709 2.56448C0.790128 3.47741 2.09432 3.08616 1.9639 2.17322C1.70306 0.608191 3.92019 2.17322 4.31145 2.30364C6.0069 3.21658 7.57193 3.99909 9.26738 4.91203C14.745 7.78125 20.0922 10.7809 25.5698 13.6501C35.7425 19.1277 46.176 24.6053 56.2183 30.4742C57.1313 30.9959 58.4355 31.5176 57.1313 32.5609C56.0879 33.3434 53.4795 33.6043 52.3058 33.9955C45.7848 35.9518 39.1334 37.9081 32.6124 39.8644C27.5261 41.4294 22.3093 43.1249 17.223 44.5595C14.745 45.342 13.9625 45.4724 13.18 43.1249C12.5279 41.0382 11.8758 38.821 11.3541 36.6039C8.09361 25.127 5.09397 13.5197 2.09432 1.91238C1.70307 1.39071 0.529289 1.78196 0.659709 2.56448Z" fill="#F73859"/>
<path d="M9.39709 14.5629C11.7446 22.7793 13.9618 31.1262 16.3093 39.3426C16.4397 39.7338 16.831 39.8643 17.0918 39.8643C25.8299 37.1254 34.6984 34.5171 43.4365 31.7783C43.9582 31.6478 44.0886 30.8653 43.5669 30.6045C32.4813 24.9965 21.3957 19.5188 10.31 13.9108C9.52751 13.5196 8.87541 14.6933 9.65793 15.0846C20.7436 20.6926 31.8292 26.1702 42.9148 31.7783C42.9148 31.387 43.0453 30.9957 43.0453 30.6045C34.3072 33.3433 25.4387 35.9517 16.7006 38.6905C16.9614 38.8209 17.2222 38.9513 17.4831 39.2122C15.1355 30.9957 12.9184 22.6489 10.5709 14.4325C10.5709 13.3891 9.26667 13.65 9.39709 14.5629Z" fill="#F73859"/>
<path d="M7.31067 3.2148C6.65858 4.25815 5.87606 5.17109 5.22396 6.21444C4.96312 6.6057 5.61522 7.12738 6.00648 6.6057C6.65858 5.56235 7.44109 4.64941 8.09319 3.60606C8.35402 3.2148 7.57151 2.82354 7.31067 3.2148Z" fill="#F73859"/>
<path d="M10.5733 4.91011C9.92117 5.82305 9.3995 6.73598 8.7474 7.64892C8.48656 8.04017 9.13865 8.56185 9.52991 8.04018C10.182 7.12724 10.7037 6.21431 11.3558 5.30137C11.6166 4.91011 10.9645 4.51885 10.5733 4.91011Z" fill="#F73859"/>
<path d="M13.8311 6.73756C13.179 7.65049 12.6573 8.56343 12.0052 9.60678C11.7444 10.1285 12.3965 10.5197 12.7877 9.99804C13.4398 9.08511 13.9615 8.17217 14.6136 7.12882C14.744 6.60714 14.0919 6.21588 13.8311 6.73756Z" fill="#F73859"/>
<path d="M16.6983 8.3025C16.0462 9.21544 15.5245 9.99796 14.8724 10.9109C14.6116 11.3021 15.2637 11.8238 15.6549 11.3021C16.307 10.3892 16.8287 9.6067 17.4808 8.69376C17.7416 8.30251 17.0895 7.78083 16.6983 8.3025Z" fill="#F73859"/>
<path d="M19.5757 9.86549C19.054 10.7784 18.4019 11.5609 17.8802 12.4739C17.6194 12.8651 18.2715 13.3868 18.6627 12.8651C19.1844 11.9522 19.8365 11.1697 20.3582 10.2567C20.619 9.73507 19.9669 9.34381 19.5757 9.86549Z" fill="#F73859"/>
<path d="M22.7013 11.5613C22.0492 12.6046 21.2667 13.5176 20.6146 14.5609C20.3537 14.9522 21.0058 15.4739 21.3971 14.9522C22.0492 13.9088 22.8317 12.9959 23.4838 11.9526C23.7447 11.5613 23.0926 11.0396 22.7013 11.5613Z" fill="#F73859"/>
<path d="M26.0889 13.2587C25.4368 14.1717 24.9151 15.0846 24.263 15.9975C24.0022 16.3888 24.6543 16.9105 25.0455 16.3888C25.6976 15.4759 26.2193 14.5629 26.8714 13.65C27.0018 13.2587 26.3497 12.8675 26.0889 13.2587Z" fill="#F73859"/>
<path d="M29.2217 14.9531C28.5696 15.866 28.0479 16.779 27.3958 17.8223C27.135 18.344 27.7871 18.7352 28.1783 18.2136C28.8304 17.3006 29.3521 16.3877 30.0042 15.3443C30.2651 14.9531 29.4825 14.5618 29.2217 14.9531Z" fill="#F73859"/>
<path d="M32.2217 16.6497C31.5696 17.5626 31.0479 18.3451 30.3958 19.2581C30.135 19.6493 30.7871 20.171 31.1783 19.6493C31.8304 18.7364 32.3521 17.9539 33.0042 17.0409C33.2651 16.5192 32.4825 16.128 32.2217 16.6497Z" fill="#F73859"/>
<path d="M35.0913 18.0849C34.5696 18.9979 33.9175 19.7804 33.3958 20.6933C33.135 21.0846 33.7871 21.6062 34.1783 21.0846C34.7 20.1716 35.3521 19.3891 35.8738 18.4762C36.0042 18.0849 35.3521 17.6937 35.0913 18.0849Z" fill="#F73859"/>
<path d="M37.8263 19.9082C37.1742 20.9515 36.3917 21.8644 35.7396 22.9078C35.4787 23.2991 36.1309 23.8207 36.5221 23.2991C37.1742 22.2557 37.9567 21.3428 38.6088 20.2994C38.8697 19.9082 38.2176 19.5169 37.8263 19.9082Z" fill="#F73859"/>
<path d="M41.0889 21.7346C40.4368 22.6476 39.9151 23.5605 39.263 24.4734C39.0022 24.8647 39.6543 25.3864 40.0455 24.8647C40.6976 23.9518 41.2193 23.0388 41.8714 22.1259C42.1322 21.6042 41.4802 21.213 41.0889 21.7346Z" fill="#F73859"/>
<path d="M44.3467 23.4314C43.6946 24.3443 43.1729 25.2573 42.5208 26.3006C42.26 26.8223 42.9121 27.2136 43.3033 26.6919C43.9554 25.779 44.4771 24.866 45.1292 23.8227C45.3901 23.4314 44.6075 22.9097 44.3467 23.4314Z" fill="#F73859"/>
<path d="M47.3467 24.9941C46.6946 25.907 46.1729 26.6895 45.5208 27.6025C45.26 27.9937 45.9121 28.5154 46.3034 27.9937C46.9555 27.0808 47.4771 26.2983 48.1292 25.3854C48.2596 24.9941 47.6075 24.6028 47.3467 24.9941Z" fill="#F73859"/>
<path d="M50.0835 26.5593C49.5618 27.4723 48.9097 28.2548 48.388 29.1677C48.1272 29.559 48.7793 30.0807 49.1705 29.559C49.6922 28.646 50.3443 27.8635 50.866 26.9506C51.1268 26.5593 50.4747 26.0377 50.0835 26.5593Z" fill="#F73859"/>
<path d="M53.2217 28.1267C52.5696 29.0397 52.0479 29.8222 51.3958 30.7351C51.135 31.2568 51.7871 31.648 52.1784 31.2568C52.8305 30.3438 53.3521 29.5613 54.0042 28.6484C54.2651 28.1267 53.613 27.7355 53.2217 28.1267Z" fill="#F73859"/>
<path d="M13.4435 41.5572C14.0956 42.4702 13.7043 43.7744 15.139 44.0352C16.4431 44.296 18.1386 43.3831 19.4428 42.9918C19.9645 42.8614 19.7036 41.9485 19.182 42.2093C18.1386 42.6006 16.9648 43.1223 15.9215 43.2527C14.4869 43.3831 14.7477 41.9485 14.0956 41.166C13.8348 40.7747 13.0522 41.166 13.4435 41.5572Z" fill="#F73859"/>
<path d="M21.6524 42.343C24.9129 41.4301 28.1734 40.3867 31.4338 39.2129C31.9555 39.0825 31.6947 38.1696 31.173 38.4304C27.9125 39.4738 24.652 40.5171 21.3916 41.5605C21.0003 41.6909 21.1307 42.4734 21.6524 42.343Z" fill="#F73859"/>
<path d="M34.8343 38.5589C40.3119 37.1243 45.7895 35.5593 51.1367 33.7334C51.6583 33.603 51.3975 32.6901 50.8758 32.9509C45.5286 34.7768 40.051 36.4722 34.5734 37.7764C34.0517 37.9068 34.3126 38.6894 34.8343 38.5589Z" fill="#F73859"/>
</svg>
