<svg width="73" height="79" viewBox="0 0 73 79" fill="none" xmlns="http://www.w3.org/2000/svg">
<path d="M51.6669 14.2447C51.8603 14.3709 52.0959 14.4151 52.3219 14.3676C52.5479 14.3201 52.7458 14.1847 52.872 13.9913L56.5842 8.30315C56.7104 8.10974 56.7546 7.87411 56.7071 7.6481C56.6596 7.42208 56.5242 7.2242 56.3308 7.09798C56.1374 6.97176 55.9018 6.92754 55.6758 6.97506C55.4498 7.02257 55.2519 7.15791 55.1257 7.35133L51.4135 13.0395C51.2873 13.2329 51.2431 13.4686 51.2906 13.6946C51.3381 13.9206 51.4735 14.1185 51.6669 14.2447Z" fill="#F73859"/>
<path d="M65.7456 51.8872L60.0574 48.1751C59.864 48.0489 59.6283 48.0047 59.4023 48.0522C59.1763 48.0997 58.9784 48.2351 58.8522 48.4285C58.726 48.6219 58.6818 48.8575 58.7293 49.0835C58.7768 49.3095 58.9121 49.5074 59.1056 49.6336L64.7937 53.3457C64.9872 53.472 65.2228 53.5162 65.4488 53.4687C65.6748 53.4212 65.8727 53.2858 65.9989 53.0924C66.1251 52.899 66.1693 52.6634 66.1218 52.4374C66.0743 52.2113 65.939 52.0135 65.7456 51.8872Z" fill="#F73859"/>
<path d="M17.2299 20.2251L11.5418 16.513C11.3483 16.3868 11.1127 16.3426 10.8867 16.3901C10.6607 16.4376 10.4628 16.573 10.3366 16.7664C10.2104 16.9598 10.1662 17.1954 10.2137 17.4214C10.2612 17.6474 10.3965 17.8453 10.5899 17.9715L16.2781 21.6836C16.4715 21.8099 16.7072 21.8541 16.9332 21.8066C17.1592 21.7591 17.3571 21.6237 17.4833 21.4303C17.6095 21.2369 17.6537 21.0013 17.6062 20.7752C17.5587 20.5492 17.4234 20.3514 17.2299 20.2251Z" fill="#F73859"/>
<path d="M72.0673 27.8034C72.0438 27.6915 71.9984 27.5853 71.9339 27.4909C71.8693 27.3965 71.7868 27.3157 71.691 27.2532C71.5952 27.1907 71.4881 27.1477 71.3757 27.1266C71.2633 27.1055 71.1478 27.1068 71.0359 27.1303L63.7012 28.6722C63.4752 28.7197 63.2773 28.855 63.1511 29.0484C63.0249 29.2418 62.9806 29.4774 63.0281 29.7035C63.0756 29.9295 63.211 30.1274 63.4044 30.2536C63.5978 30.3798 63.8334 30.4241 64.0594 30.3766L71.3943 28.8347C71.6203 28.7872 71.8182 28.6518 71.9444 28.4584C72.0706 28.265 72.1148 28.0294 72.0673 27.8034Z" fill="#F73859"/>
<path d="M32.9368 10.069C33.0487 10.0455 33.1549 10.0002 33.2493 9.93561C33.3437 9.87104 33.4244 9.78852 33.4869 9.69274C33.5495 9.59696 33.5925 9.48981 33.6136 9.3774C33.6347 9.265 33.6334 9.14954 33.6099 9.03762L32.0679 1.70289C32.0452 1.59021 32.0003 1.48314 31.936 1.38787C31.8717 1.29259 31.7892 1.21099 31.6932 1.14778C31.5971 1.08456 31.4896 1.04098 31.3766 1.01955C31.2637 0.998118 31.1476 0.999259 31.0351 1.02291C30.9226 1.04655 30.8159 1.09224 30.7212 1.15733C30.6264 1.22242 30.5455 1.30563 30.4831 1.40215C30.4207 1.49867 30.378 1.6066 30.3574 1.71971C30.3369 1.83282 30.339 1.94887 30.3636 2.06116L31.9054 9.39581C31.9289 9.50773 31.9743 9.61393 32.0388 9.70833C32.1034 9.80273 32.1859 9.88349 32.2817 9.94599C32.3775 10.0085 32.4846 10.0515 32.5971 10.0726C32.7095 10.0937 32.8249 10.0924 32.9368 10.0689L32.9368 10.069Z" fill="#F73859"/>
<path d="M26.119 25.7952C25.9928 25.9886 25.9486 26.2242 25.9961 26.4502C26.0436 26.6762 26.179 26.8741 26.3724 27.0003C26.5658 27.1265 26.8014 27.1708 27.0274 27.1232C27.2535 27.0757 27.4513 26.9404 27.5776 26.747C27.6846 26.5829 27.7966 26.4192 27.9104 26.2604C28.0448 26.0726 28.0991 25.839 28.0613 25.6112C28.0235 25.3834 27.8968 25.1798 27.709 25.0454C27.5212 24.911 27.2876 24.8567 27.0598 24.8945C26.832 24.9323 26.6284 25.059 26.494 25.2468C26.3659 25.4257 26.2397 25.6103 26.119 25.7952Z" fill="#F73859"/>
<path d="M28.4762 24.1742C28.5538 24.2582 28.6473 24.326 28.7511 24.3739C28.855 24.4218 28.9673 24.4487 29.0816 24.4531C29.1959 24.4576 29.3099 24.4395 29.4172 24.3999C29.5245 24.3603 29.6229 24.2999 29.7069 24.2223C31.6368 22.4492 34.0452 21.2825 36.6328 20.867C39.2204 20.4515 41.873 20.8057 44.261 21.8854C44.4708 21.9794 44.7093 21.9867 44.9244 21.9055C45.1395 21.8244 45.3138 21.6615 45.4093 21.4524C45.5048 21.2432 45.5136 21.0048 45.434 20.7891C45.3544 20.5734 45.1927 20.398 44.9842 20.3011C42.2838 19.0788 39.2835 18.6777 36.3569 19.1475C33.4302 19.6174 30.7063 20.9375 28.5242 22.9437C28.3546 23.1005 28.2543 23.3182 28.2453 23.549C28.2363 23.7798 28.3194 24.0047 28.4762 24.1742Z" fill="#F73859"/>
<path d="M57.0117 30.036C56.0498 25.6203 53.5205 21.7027 49.8922 19.0084C46.2638 16.3142 41.7821 15.0259 37.2768 15.3821C37.1533 15.3919 37.0333 15.428 36.9247 15.4878C36.8162 15.5476 36.7216 15.6299 36.6474 15.7291C36.5731 15.8283 36.5208 15.9422 36.4939 16.0631C36.4671 16.1841 36.4663 16.3095 36.4916 16.4308C36.536 16.6388 36.6548 16.8235 36.8258 16.9501C36.9968 17.0767 37.2081 17.1365 37.42 17.1183C41.7701 16.777 46.0846 18.1245 49.4672 20.8809C52.8498 23.6373 55.0407 27.5908 55.5848 31.9202C56.1288 36.2497 54.9843 40.6223 52.3888 44.13C49.7934 47.6377 45.9465 50.0108 41.6472 50.7564C39.793 51.0718 38.0233 51.7644 36.4476 52.7914C34.8719 53.8184 33.5239 55.158 32.4869 56.7271L32.1035 57.3145L28.3053 54.8358L40.1014 43.3728C40.7095 43.1249 41.0179 43.0573 41.3217 43.2556C41.5151 43.3818 41.7508 43.426 41.9768 43.3785C42.2028 43.331 42.4007 43.1957 42.5269 43.0023C42.6531 42.8088 42.6973 42.5732 42.6498 42.3472C42.6023 42.1212 42.4669 41.9233 42.2735 41.7971C41.1231 41.0463 40.0082 41.5189 39.194 41.8638C38.4304 42.1876 38.0856 42.2972 37.746 42.0756C37.4064 41.854 37.3679 41.4942 37.3567 40.6647C37.3445 39.7805 37.3283 38.5699 36.1778 37.819C35.0273 37.0682 33.9136 37.5415 33.0991 37.8866C32.3359 38.2103 31.9913 38.3201 31.6523 38.0989C31.3133 37.8777 31.2747 37.5178 31.2637 36.6886C31.2515 35.8043 31.2357 34.5938 30.0853 33.843C29.8918 33.7168 29.6562 33.6726 29.4302 33.7201C29.2042 33.7676 29.0063 33.903 28.8801 34.0964C28.7539 34.2898 28.7097 34.5254 28.7572 34.7514C28.8047 34.9774 28.94 35.1753 29.1334 35.3015C29.4424 35.5032 29.5017 35.8207 29.5182 36.5016L23.9066 51.9652L20.1163 49.4916L20.4996 48.9042C21.5213 47.3468 22.2093 45.5947 22.5203 43.7582C22.8313 41.9218 22.7585 40.0408 22.3066 38.2338C21.3815 34.6002 21.6842 30.7627 23.1675 27.319C24.6507 23.8754 27.2313 21.019 30.5071 19.1948C30.6711 19.105 30.8018 18.9648 30.8802 18.7951C30.9585 18.6254 30.9802 18.435 30.9422 18.2519C30.9144 18.1188 30.8559 17.9941 30.7712 17.8877C30.6866 17.7813 30.5782 17.6962 30.4547 17.6392C30.3313 17.5822 30.1962 17.5549 30.0603 17.5595C29.9244 17.5641 29.7915 17.6005 29.6722 17.6657C26.0569 19.6756 23.2083 22.8254 21.5707 26.6239C19.9331 30.4224 19.5984 34.656 20.619 38.6645C21.0116 40.2377 21.0741 41.8752 20.8025 43.4738C20.5309 45.0723 19.9312 46.5973 19.0412 47.9526L18.6483 48.5546C18.068 48.2639 17.401 48.1966 16.7743 48.3656C16.1476 48.5345 15.6049 48.928 15.2494 49.4711L15.1217 49.6668C14.8866 50.0273 14.7431 50.4399 14.7038 50.8686C14.6645 51.2973 14.7306 51.729 14.8963 52.1263C14.4631 52.3335 14.0951 52.6557 13.8325 53.0577L13.7047 53.2535C13.4696 53.6141 13.3262 54.0266 13.2869 54.4553C13.2476 54.8839 13.3137 55.3157 13.4794 55.713C13.0461 55.9202 12.6781 56.2424 12.4154 56.6444L12.2877 56.8401C11.9176 57.4093 11.7806 58.0991 11.9052 58.7665C12.0297 59.4339 12.4062 60.0279 12.9567 60.4253C12.5161 61.67 12.5072 63.0267 12.9312 64.277C13.3553 65.5274 14.1877 66.5988 15.2945 67.3186L17.7268 68.9059C18.8314 69.6293 20.1471 69.96 21.4624 69.8448C22.7777 69.7296 24.0159 69.1752 24.9779 68.2709C25.5633 68.6148 26.2586 68.7203 26.9197 68.5656C27.5808 68.4108 28.157 68.0077 28.529 67.4397L28.6567 67.244C28.919 66.8417 29.0657 66.3751 29.0809 65.8951C29.5113 65.8868 29.9331 65.7735 30.3097 65.5649C30.6863 65.3564 31.0062 65.059 31.2416 64.6986L31.3694 64.5028C31.6316 64.1005 31.7783 63.6339 31.7935 63.154C32.2239 63.1457 32.6457 63.0323 33.0223 62.8237C33.3989 62.6152 33.7187 62.3177 33.9541 61.9573L34.0818 61.7616C34.4359 61.2176 34.5777 60.5623 34.4801 59.9205C34.3825 59.2787 34.0523 58.6952 33.5524 58.2811L33.953 57.6673C34.8591 56.3008 36.0358 55.1347 37.4105 54.2411C38.7851 53.3475 40.3285 52.7453 41.9451 52.4719C44.4344 52.0418 46.8106 51.1115 48.9302 49.7371C51.0497 48.3628 52.8686 46.5729 54.277 44.4758C55.6853 42.3786 56.6538 40.0177 57.1239 37.5357C57.5941 35.0537 57.5561 32.5021 57.0123 30.0352L57.0117 30.036ZM30.3594 39.2903C30.4655 39.3888 30.5797 39.4783 30.7009 39.5576C31.851 40.3082 32.9657 39.8353 33.7797 39.4901C34.5428 39.1663 34.8874 39.0566 35.2264 39.2778C35.5653 39.499 35.6045 39.8592 35.6156 40.6886C35.6279 41.5728 35.644 42.7835 36.7945 43.5343C36.9258 43.6203 37.0648 43.6941 37.2096 43.7547L26.8102 53.8601L25.405 52.943L30.3594 39.2903ZM18.6787 67.4474L16.2464 65.8601C15.5293 65.3939 14.9742 64.7172 14.6569 63.9229C14.3397 63.1287 14.276 62.2557 14.4745 61.4238L23.4529 67.2831C22.7713 67.7997 21.9466 68.0928 21.0918 68.1223C20.2371 68.1517 19.3942 67.916 18.6787 67.4474V67.4474ZM27.0705 66.4879C26.9397 66.6879 26.7349 66.8278 26.501 66.877C26.2671 66.9262 26.0233 66.8805 25.823 66.7502L14.0086 59.0401C13.8086 58.9092 13.6686 58.7044 13.6195 58.4705C13.5703 58.2366 13.6159 57.9928 13.7463 57.7925L13.874 57.5968C14.0048 57.3968 14.2097 57.2569 14.4436 57.2077C14.6774 57.1586 14.9213 57.2042 15.1216 57.3346L26.9355 65.0443C27.1355 65.1752 27.2754 65.38 27.3246 65.6139C27.3737 65.8478 27.3281 66.0916 27.1977 66.2919L27.0705 66.4879ZM29.7831 63.7468C29.6522 63.9467 29.4474 64.0866 29.2136 64.1358C28.9797 64.1849 28.7359 64.1393 28.5356 64.0089L15.4251 55.453C15.2251 55.3222 15.0852 55.1174 15.036 54.8835C14.9869 54.6497 15.0325 54.4059 15.1629 54.2056L15.2906 54.0098C15.4215 53.8099 15.6263 53.67 15.8601 53.6208C16.0939 53.5716 16.3377 53.6173 16.538 53.7476L29.6485 62.3036C29.8485 62.4344 29.9884 62.6392 30.0376 62.873C30.0868 63.1069 30.0412 63.3507 29.9109 63.551L29.7831 63.7468ZM32.6233 60.8098L32.4956 61.0055C32.3648 61.2055 32.16 61.3454 31.9261 61.3946C31.6923 61.4437 31.4485 61.3982 31.2482 61.2678L16.842 51.8663C16.642 51.7355 16.5022 51.5307 16.453 51.2968C16.4039 51.0629 16.4495 50.8191 16.5799 50.6189L16.7076 50.4232C16.8384 50.2232 17.0432 50.0833 17.277 50.0341C17.5109 49.9849 17.7547 50.0305 17.955 50.1609L32.3612 59.5623C32.5611 59.6932 32.701 59.898 32.7502 60.1319C32.7993 60.3657 32.7537 60.6095 32.6233 60.8098V60.8098Z" fill="#F73859"/>
</svg>
