<svg width="1920" height="50" viewBox="0 0 1920 50" fill="none" xmlns="http://www.w3.org/2000/svg">
<path d="M1920 3.11064L1874.27 1.8163C1828.53 0.424265 1737.33 -2.0179 1645.33 3.11062C1554.27 8.23913 1462.67 21.4268 1372 29.1684C1280 37.0565 1188 39.4987 1097.33 35.6645C1005.73 31.6838 914.667 21.4267 822.667 14.8329C731.467 8.23906 640 5.7969 548 9.63107C457.2 13.6118 365.333 23.8688 274.667 23.9421C182.8 23.8688 91.9999 13.6117 45.3333 8.31227L-5.31213e-05 3.11048L-5.72205e-05 49.9998L45.7333 49.9998C91.4667 49.9998 182.667 49.9998 274.667 49.9999C365.733 49.9999 457.333 49.9999 548 49.9999C640 49.9999 732 49.9999 822.667 49.9999C914.267 49.9999 1005.33 49.9999 1097.33 49.9999C1188.53 49.9999 1280 49.9999 1372 50C1462.8 50 1554.67 50 1645.33 50C1737.2 50 1828 50 1874.67 50L1920 50L1920 3.11064Z" fill="#F73859" fill-opacity="0.05"/>
</svg>
