<svg width="169" height="53" viewBox="0 0 169 53" fill="none" xmlns="http://www.w3.org/2000/svg">
<g filter="url(#filter0_d_1_2768)">
<path d="M55.6488 15.0661C53.6597 12.9845 51.0076 11.9437 47.7587 12.0087C44.3109 12.0087 41.5925 12.9845 39.736 15.0011C37.8132 17.0177 36.8849 19.7498 36.8849 23.3276C36.8186 26.7754 37.8132 29.5726 39.8023 31.6542C41.7914 33.7358 44.4435 34.7767 47.6924 34.7767C51.1402 34.7767 53.7923 33.8009 55.7151 31.7843C57.638 29.7677 58.6325 26.9705 58.6325 23.3927C58.5662 19.8799 57.638 17.1478 55.6488 15.0661ZM51.2065 28.3366C50.4772 29.3774 49.2837 29.9629 47.6924 29.9629C46.1011 29.9629 44.9077 29.4425 44.1783 28.3366C43.449 27.2307 43.0512 25.6044 43.0512 23.3927C43.0512 21.181 43.3827 19.5547 44.112 18.4488C44.8414 17.408 46.0348 16.8225 47.6261 16.8225C49.2174 16.8225 50.4109 17.3429 51.1402 18.4488C51.8695 19.4896 52.2674 21.181 52.2674 23.3927C52.3337 25.5394 51.9359 27.2307 51.2065 28.3366Z" fill="#F73859"/>
<path d="M63.6052 3.8125V34.3866H69.7051V3.8125H63.6052V3.8125Z" fill="#101921"/>
<path d="M95.3645 21.9616C95.3645 18.8392 94.5026 16.4323 92.7124 14.6759C90.9222 12.9195 88.469 12.0088 85.2201 12.0088C81.9712 12.0088 79.4517 12.9846 77.5289 15.0011C75.6724 17.0177 74.7441 19.8149 74.7441 23.4578C74.7441 27.1007 75.7387 29.8979 77.7941 31.8494C79.8495 33.801 82.6343 34.7767 86.2146 34.7767C89.3309 34.7767 91.9831 34.2563 94.1048 33.2155V28.5969C91.5852 29.7678 89.0657 30.3532 86.5462 30.3532C84.8223 30.3532 83.4962 29.8979 82.5017 28.9221C81.5071 27.9463 81.043 26.6453 80.9767 24.8889H95.4308V21.9616H95.3645ZM81.043 20.9208C81.1756 19.4246 81.5734 18.3188 82.3027 17.4731C83.0321 16.6925 84.0929 16.2371 85.3527 16.2371C86.6788 16.2371 87.6733 16.6274 88.4027 17.4731C89.132 18.3188 89.5298 19.4246 89.5298 20.9208H81.043Z" fill="#101921"/>
<path d="M116.383 13.8954C114.792 12.5944 112.471 11.9438 109.355 11.9438C106.239 11.9438 103.454 12.5944 100.868 13.9604L102.923 17.9936C105.377 16.9528 107.432 16.4324 109.222 16.4324C111.543 16.4324 112.736 17.5383 112.736 19.75V20.7258L108.824 20.8559C105.443 20.986 102.923 21.5714 101.266 22.7424C99.6081 23.8482 98.8125 25.5396 98.8125 27.8164C98.8125 30.0931 99.4092 31.7845 100.669 33.0205C101.929 34.2564 103.586 34.8419 105.774 34.8419C107.498 34.8419 108.957 34.5817 110.018 34.1263C111.079 33.671 112.14 32.7602 113.2 31.4592H113.333L114.526 34.4516H118.77V19.75C118.77 17.1479 117.974 15.1964 116.383 13.8954ZM112.736 25.9949C112.736 27.2959 112.338 28.4018 111.476 29.1824C110.615 29.963 109.487 30.3533 108.095 30.3533C106.106 30.3533 105.111 29.5077 105.111 27.8164C105.111 26.6454 105.509 25.7347 106.371 25.2143C107.233 24.6288 108.559 24.3036 110.349 24.2385L112.736 24.1735V25.9949Z" fill="#101921"/>
<path d="M137.534 12.0088C136.141 12.0088 134.882 12.3991 133.688 13.1147C132.495 13.8302 131.566 14.871 130.837 16.107H130.572L129.71 12.3991H125.069V34.3214H131.169V23.1976C131.169 21.4412 131.699 20.0101 132.826 19.0343C133.887 18.0586 135.412 17.5381 137.401 17.5381C138.064 17.5381 138.727 17.6032 139.191 17.7333L139.655 12.1389C138.992 12.0738 138.329 12.0088 137.534 12.0088Z" fill="#101921"/>
<path d="M162.331 14.0255C161.005 12.6594 159.016 11.9438 156.364 11.9438C154.839 11.9438 153.446 12.2041 152.253 12.7895C151.06 13.3099 150.131 14.1556 149.468 15.1964H149.137L148.341 12.3992H143.634V34.3215H149.733V24.0434C149.733 21.4413 150.131 19.5548 150.927 18.449C151.723 17.3431 152.916 16.7576 154.64 16.7576C155.9 16.7576 156.828 17.1479 157.358 17.9286C157.955 18.7092 158.22 19.8801 158.22 21.5064V34.3215H164.32V20.0102C164.32 17.4082 163.657 15.4566 162.331 14.0255Z" fill="#101921"/>
<path d="M32.3764 31.3943C31.1166 30.3535 29.1938 29.833 26.7406 29.833H22.9613C20.7069 29.833 19.5798 29.3777 19.5798 28.532C19.5798 27.9466 19.9113 27.4261 20.508 26.9708L22.4971 27.1009C25.4808 27.1009 27.8014 26.4504 29.459 25.0843C31.1166 23.7833 31.9785 21.9618 31.9785 19.5549C31.9785 18.7743 31.8459 17.9937 31.5807 17.3432C31.3818 17.3432 31.1829 17.2781 31.0503 17.2781L30.5862 17.148V17.083C30.1884 16.8228 29.8568 16.4325 29.7242 15.9121C29.6579 15.6519 29.6579 15.3266 29.6579 15.0664C29.1275 16.3024 28.0003 17.6034 26.409 18.7093L26.1438 18.9044C26.1438 19.0996 26.1438 19.3598 26.1438 19.62C26.1438 20.856 25.8786 21.8317 25.3482 22.4823C24.8178 23.1328 23.9558 23.458 22.8287 23.458C21.7015 23.458 20.9059 23.1328 20.3091 22.4172C20.0439 22.0919 19.845 21.7667 19.7124 21.3764H19.6461C18.5852 21.5715 17.5244 21.7016 16.5298 21.7016C15.6016 21.7016 14.6733 21.6366 13.8114 21.4414C14.0103 22.157 14.2755 22.7425 14.607 23.3279C15.2701 24.4338 16.1983 25.2144 17.3918 25.7348C16.3972 26.3203 15.6679 26.8407 15.2037 27.4261C14.7396 28.0116 14.4744 28.5971 14.4744 29.3777C14.4744 30.1583 14.7396 30.7438 15.1374 31.3292C15.6016 31.9147 16.132 32.37 16.795 32.6302C15.1374 33.0206 13.944 33.6711 13.082 34.5818C12.2201 35.4925 11.8223 36.5984 11.8223 37.8994C11.8223 39.8509 12.6842 41.3471 14.3418 42.3879C15.9994 43.4288 18.3863 44.0142 21.5026 44.0142C25.6134 44.0142 28.7297 43.2987 30.9177 41.8675C33.1057 40.4364 34.2329 38.4849 34.2329 35.8828C34.2992 33.9313 33.6361 32.37 32.3764 31.3943ZM27.0058 39.2655C25.746 39.8509 24.0221 40.1762 21.8341 40.1762C20.3754 40.1762 19.2483 39.916 18.4526 39.4606C17.657 39.0053 17.2592 38.3548 17.2592 37.5091C17.2592 36.6634 17.657 36.0129 18.3863 35.4925C19.182 34.9721 20.1102 34.7119 21.1711 34.7119H24.3536C25.9449 34.7119 27.0721 34.842 27.8014 35.1672C28.5308 35.4925 28.8623 36.078 28.8623 36.8586C28.8623 37.8344 28.2655 38.615 27.0058 39.2655Z" fill="#F73859"/>
<path d="M13.7449 20.7908C15.4025 21.1811 17.4579 21.1811 19.5796 20.7908C19.5133 20.5956 19.5133 20.4005 19.5133 20.1403C19.5133 19.9451 19.5133 19.75 19.5133 19.6199C19.5133 16.9528 20.6405 15.6517 22.8948 15.6517C24.4198 15.6517 25.4143 16.3023 25.8785 17.5382C25.9448 17.7334 26.0111 17.9936 26.0774 18.1887C28.4643 16.5625 29.7241 14.5459 29.3262 13.0497C29.3262 12.9846 29.2599 12.7895 29.2599 12.7244C29.2599 12.7244 29.2599 12.5943 29.1936 12.3992C29.1273 12.2691 29.061 12.0089 28.9947 11.7487C28.7295 10.7079 28.2654 9.01652 28.0665 8.30095C27.8676 7.58539 27.4697 8.04075 27.4697 8.04075L23.6904 11.9438L21.1709 14.6109C20.7731 15.0012 20.2427 15.3265 19.6459 15.4566C19.0492 15.5867 18.4525 15.6517 17.922 15.4566L15.2699 14.676L9.30257 12.9846C9.30257 12.9846 8.50693 12.7895 8.77214 13.7002C9.03736 14.741 9.8993 17.7984 9.8993 17.7984C9.8993 17.8635 9.96561 18.0586 9.96561 18.1237C10.2308 19.1645 11.4243 20.0102 13.0819 20.5306C13.2808 20.6607 13.546 20.7257 13.7449 20.7908Z" fill="#F73859"/>
<path d="M18.121 14.1557C18.784 14.3508 19.7123 14.0906 20.1764 13.6353L21.7014 12.009L29.5252 3.87759C29.9893 3.35718 29.8567 2.83677 29.1937 2.64162L16.3971 0.10462C15.7341 -0.0905341 14.8058 0.169671 14.3417 0.62503L4.59508 9.2118C4.13096 9.73221 4.26357 10.2526 4.9266 10.4478L16.3308 13.7003L18.121 14.1557Z" fill="#F73859"/>
<path d="M29.4589 6.34947C29.3263 6.47957 28.9285 6.86988 28.8622 6.99998C28.7296 7.19513 28.8622 7.52039 28.8622 7.52039C28.8622 7.52039 29.4589 9.73213 30.0556 11.7487C30.1219 11.9439 30.1882 12.2041 30.2545 12.3992C30.4534 13.1798 30.6524 13.8304 30.785 14.2857C30.785 14.4158 30.7187 14.4809 30.7187 14.4809C30.3871 14.8061 30.2545 15.3265 30.3871 15.7819C30.5197 16.2373 30.8513 16.5625 31.2491 16.6926C31.448 16.7577 31.7132 16.7577 31.9784 16.6926C32.4426 16.5625 32.7741 16.2373 32.9067 15.7819C32.973 15.5217 32.973 15.2615 32.9067 15.0013C32.7741 14.5459 32.3762 14.1556 31.9121 14.0906C31.8458 14.0906 31.7795 14.0255 31.7132 13.9605C31.5806 13.5702 31.448 12.9847 31.2491 12.3342C30.5861 9.92729 29.5915 6.47957 29.5915 6.47957C29.5915 6.47957 29.6578 6.15431 29.4589 6.34947Z" fill="#F73859"/>
</g>
<defs>
<filter id="filter0_d_1_2768" x="0.320312" y="0.0390625" width="168" height="51.9751" filterUnits="userSpaceOnUse" color-interpolation-filters="sRGB">
<feFlood flood-opacity="0" result="BackgroundImageFix"/>
<feColorMatrix in="SourceAlpha" type="matrix" values="0 0 0 0 0 0 0 0 0 0 0 0 0 0 0 0 0 0 127 0" result="hardAlpha"/>
<feOffset dy="4"/>
<feGaussianBlur stdDeviation="2"/>
<feComposite in2="hardAlpha" operator="out"/>
<feColorMatrix type="matrix" values="0 0 0 0 0 0 0 0 0 0 0 0 0 0 0 0 0 0 0.25 0"/>
<feBlend mode="normal" in2="BackgroundImageFix" result="effect1_dropShadow_1_2768"/>
<feBlend mode="normal" in="SourceGraphic" in2="effect1_dropShadow_1_2768" result="shape"/>
</filter>
</defs>
</svg>
