<svg width="131" height="120" viewBox="0 0 131 120" fill="none" xmlns="http://www.w3.org/2000/svg">
<path d="M5.56509 117.535C22.4946 118.73 40.6342 110.751 53.2073 99.8272C65.2472 89.364 77.3273 71.4097 70.4676 54.8837C67.9697 48.8626 61.8948 44.3774 55.6051 48.293C49.7604 51.927 48.9048 59.3781 52.7187 64.8361C63.0184 79.5788 85.7322 68.9844 95.9875 59.774C102.475 53.954 107.567 46.5917 110.708 38.4579C113.618 30.9129 115.68 21.4677 113.432 13.5145C113.108 12.3698 111.155 12.653 111.104 13.8187C110.857 20.0451 111.108 25.9757 109.504 32.0792C107.839 38.4139 104.881 44.4219 101.002 49.6844C93.3039 60.1317 79.7005 70.0661 66.0551 68.9936C58.823 68.4236 48.9416 60.728 54.7042 52.8869C57.0405 49.7115 61.2818 48.396 64.5448 51.0281C67.5196 53.4324 68.8758 57.7174 69.3857 61.3517C71.4675 76.156 60.7998 90.3853 50.0853 99.3414C44.0228 104.408 37.1265 108.437 29.752 111.266C21.859 114.295 13.9108 115.299 5.56977 116.075C4.75512 116.146 4.72652 117.477 5.56509 117.535Z" fill="#F73859"/>
<path d="M0.929902 117.386C18.9016 123.082 38.5605 116.951 51.9649 104.158C58.4154 98.0012 63.5432 90.5923 67.4412 82.59C71.4156 74.424 75.2335 64.6864 74.5769 55.4429C74.125 48.9937 69.4263 39.0635 61.3068 41.5354C54.1605 43.7054 48.8219 53.1879 49.8183 60.3829C50.9336 68.4353 59.1147 72.9524 66.6383 72.9745C75.622 73.0013 84.4784 68.1008 91.4612 62.8097C106.748 51.2238 116.597 32.7582 117.251 13.5601C117.312 11.7295 114.484 11.3031 114.399 13.1647C113.796 27.0909 108.533 40.4112 99.5647 51.0804C94.9961 56.5168 89.464 61.2063 83.2906 64.7296C76.22 68.7613 67.0826 72.4206 59.1887 68.5503C50.474 64.2776 51.1086 54.3345 56.9268 47.827C60.3203 44.0316 64.9099 42.1747 68.7304 46.6682C71.8324 50.3129 72.3013 55.6635 71.81 60.2388C70.2271 74.8936 61.8586 90.3656 51.661 100.818C38.8767 113.921 19.6416 121.051 1.66648 115.649C0.509313 115.291 -0.235926 117.015 0.929902 117.386Z" fill="#F73859"/>
<path d="M103.517 27.4149C106.166 24.6525 108.431 21.4655 110.82 18.4787C111.948 17.0673 113.083 15.655 114.211 14.2367C114.733 13.5819 117.065 9.84142 117.9 9.92777C118.331 9.96914 119.759 14.3215 119.993 14.8776C120.69 16.5252 121.387 18.1729 122.085 19.8274C123.448 23.043 124.47 27.2319 126.862 29.8242C127.717 30.753 129.199 30.1752 129.114 28.8874C128.962 26.4981 127.731 24.3965 126.789 22.2152C125.727 19.7494 124.658 17.2845 123.595 14.8187C122.606 12.5389 121.418 6.76546 118.318 6.33972C115.359 5.93035 113.04 11.1566 111.585 13.0645C108.318 17.3462 104.668 21.5244 101.807 26.0812C101.042 27.2845 102.552 28.4209 103.517 27.4149Z" fill="#F73859"/>
<path d="M104.481 27.7917C106.703 24.3309 108.027 20.1915 109.834 16.4917C111.934 12.202 114.177 7.9424 116.873 3.99372C115.935 3.87188 114.991 3.75094 114.053 3.6291C115.877 7.69924 117.535 11.8399 118.961 16.0669C120.35 20.173 120.861 24.9942 122.848 28.8196C123.427 29.9311 125.524 30.006 125.574 28.4633C125.707 24.3538 123.839 19.7866 122.566 15.9238C121.03 11.2783 119.184 6.77114 117.085 2.353C116.449 1.01848 114.707 1.09954 114.054 2.35113C111.883 6.52445 109.596 10.6151 107.613 14.8896C105.832 18.7326 103.625 22.9525 102.974 27.1577C102.862 27.9545 104.017 28.5157 104.481 27.7917Z" fill="#F73859"/>
<path d="M104.491 31.3378C108.964 21.6961 113.384 12.0264 117.961 2.43395C116.948 2.43363 115.943 2.43241 114.93 2.43209C117.391 6.78208 119.812 11.1443 121.953 15.6619C123.921 19.8248 125.234 24.6321 127.793 28.4525C128.601 29.6598 130.519 28.7387 130.336 27.3939C129.706 22.6789 126.965 17.9466 124.897 13.7198C122.734 9.29597 120.385 4.95222 117.753 0.792132C117.076 -0.278478 115.379 0.0969341 114.938 1.16009C110.85 10.9679 106.607 20.7054 102.408 30.4649C101.822 31.8054 103.882 32.6604 104.491 31.3378Z" fill="#F73859"/>
</svg>
