<svg width="49" height="41" viewBox="0 0 49 41" fill="none" xmlns="http://www.w3.org/2000/svg">
<path d="M10.4597 23.6057C7.52865 23.3127 5.18382 22.0671 3.42519 19.869C1.66656 17.6708 0.787248 14.9598 0.787248 11.7359C0.787248 8.65859 1.81311 6.09412 3.86485 4.04255C5.91658 1.99098 8.70107 0.965198 12.2183 0.965198C15.589 0.965198 18.3002 1.99098 20.352 4.04255C22.4037 6.24066 23.4296 9.53783 23.4296 13.9341C23.4296 18.4768 21.5244 23.5325 17.714 29.101C13.9037 34.8161 9.94677 38.6262 5.84331 40.5312C5.2571 40.8243 4.37778 40.4579 3.20536 39.4322C2.03294 38.4064 1.44674 37.5271 1.44674 36.7944C5.69675 33.8636 8.70107 29.4674 10.4597 23.6057ZM35.9598 23.6057C33.1753 23.3127 30.9038 22.0671 29.1451 19.869C27.3865 17.6708 26.5072 14.9598 26.5072 11.7359C26.5072 8.65858 27.533 6.09412 29.5848 4.04255C31.49 1.99098 34.2012 0.965196 37.7184 0.965196C41.0891 0.965195 43.8004 1.99098 45.8521 4.04255C47.9038 6.24066 48.9297 9.53783 48.9297 13.9341C48.9297 18.4768 47.0978 23.5325 43.434 29.101C39.6236 34.8161 35.5934 38.6262 31.3434 40.5312C30.7572 40.8243 29.8779 40.4579 28.7055 39.4322C27.533 38.4064 26.9468 37.5271 26.9468 36.7944C31.1969 33.8636 34.2012 29.4674 35.9598 23.6057Z" fill="#F73859"/>
</svg>
