<svg width="90" height="508" viewBox="0 0 90 508" fill="none" xmlns="http://www.w3.org/2000/svg">
<circle cx="1.7963" cy="1.35294" r="1.19864" fill="#F73859"/>
<circle cx="23.3744" cy="1.35294" r="1.19864" fill="#F73859"/>
<circle cx="44.9525" cy="1.35196" r="1.19864" fill="#F73859"/>
<circle cx="66.5229" cy="1.35196" r="1.19864" fill="#F73859"/>
<circle cx="88.101" cy="1.35294" r="1.19864" fill="#F73859"/>
<circle cx="1.7963" cy="22.9281" r="1.19864" fill="#F73859"/>
<circle cx="23.3744" cy="22.9272" r="1.19864" fill="#F73859"/>
<circle cx="44.9525" cy="22.9272" r="1.19864" fill="#F73859"/>
<circle cx="66.5229" cy="22.9281" r="1.19864" fill="#F73859"/>
<circle cx="88.101" cy="22.9272" r="1.19864" fill="#F73859"/>
<circle cx="1.7963" cy="44.5024" r="1.19864" fill="#F73859"/>
<circle cx="23.3744" cy="44.5014" r="1.19864" fill="#F73859"/>
<circle cx="44.9525" cy="44.5014" r="1.19864" fill="#F73859"/>
<circle cx="66.5229" cy="44.5024" r="1.19864" fill="#F73859"/>
<circle cx="88.101" cy="44.5024" r="1.19864" fill="#F73859"/>
<circle cx="1.7963" cy="66.0785" r="1.19864" fill="#F73859"/>
<circle cx="23.3744" cy="66.0775" r="1.19864" fill="#F73859"/>
<circle cx="44.9525" cy="66.0775" r="1.19864" fill="#F73859"/>
<circle cx="66.5229" cy="66.0785" r="1.19864" fill="#F73859"/>
<circle cx="88.101" cy="66.0775" r="1.19864" fill="#F73859"/>
<circle cx="1.7963" cy="87.6547" r="1.19864" fill="#F73859"/>
<circle cx="23.3744" cy="87.6537" r="1.19864" fill="#F73859"/>
<circle cx="44.9525" cy="87.6537" r="1.19864" fill="#F73859"/>
<circle cx="66.5229" cy="87.6547" r="1.19864" fill="#F73859"/>
<circle cx="88.101" cy="87.6537" r="1.19864" fill="#F73859"/>
<circle cx="1.7963" cy="106.016" r="1.19864" fill="#F73859"/>
<circle cx="23.3744" cy="106.015" r="1.19864" fill="#F73859"/>
<circle cx="44.9525" cy="106.015" r="1.19864" fill="#F73859"/>
<circle cx="66.5229" cy="106.015" r="1.19864" fill="#F73859"/>
<circle cx="88.101" cy="106.015" r="1.19864" fill="#F73859"/>
<circle cx="1.7963" cy="127.59" r="1.19864" fill="#F73859"/>
<circle cx="23.3744" cy="127.589" r="1.19864" fill="#F73859"/>
<circle cx="44.9525" cy="127.589" r="1.19864" fill="#F73859"/>
<circle cx="66.5229" cy="127.59" r="1.19864" fill="#F73859"/>
<circle cx="88.101" cy="127.589" r="1.19864" fill="#F73859"/>
<circle cx="1.7963" cy="149.165" r="1.19864" fill="#F73859"/>
<circle cx="23.3744" cy="149.164" r="1.19864" fill="#F73859"/>
<circle cx="44.9525" cy="149.164" r="1.19864" fill="#F73859"/>
<circle cx="66.5229" cy="149.165" r="1.19864" fill="#F73859"/>
<circle cx="88.101" cy="149.165" r="1.19864" fill="#F73859"/>
<circle cx="1.7963" cy="170.743" r="1.19864" fill="#F73859"/>
<circle cx="23.3744" cy="170.742" r="1.19864" fill="#F73859"/>
<circle cx="44.9525" cy="170.742" r="1.19864" fill="#F73859"/>
<circle cx="66.5229" cy="170.743" r="1.19864" fill="#F73859"/>
<circle cx="88.101" cy="170.742" r="1.19864" fill="#F73859"/>
<circle cx="1.7963" cy="192.318" r="1.19864" fill="#F73859"/>
<circle cx="23.3744" cy="192.317" r="1.19864" fill="#F73859"/>
<circle cx="44.9525" cy="192.317" r="1.19864" fill="#F73859"/>
<circle cx="66.5229" cy="192.318" r="1.19864" fill="#F73859"/>
<circle cx="88.101" cy="192.318" r="1.19864" fill="#F73859"/>
<circle cx="1.7963" cy="210.68" r="1.19864" fill="#F73859"/>
<circle cx="23.3744" cy="210.679" r="1.19864" fill="#F73859"/>
<circle cx="44.9525" cy="210.679" r="1.19864" fill="#F73859"/>
<circle cx="66.5229" cy="210.679" r="1.19864" fill="#F73859"/>
<circle cx="88.101" cy="210.679" r="1.19864" fill="#F73859"/>
<circle cx="1.7963" cy="232.254" r="1.19864" fill="#F73859"/>
<circle cx="23.3744" cy="232.253" r="1.19864" fill="#F73859"/>
<circle cx="44.9525" cy="232.253" r="1.19864" fill="#F73859"/>
<circle cx="66.5229" cy="232.254" r="1.19864" fill="#F73859"/>
<circle cx="88.101" cy="232.253" r="1.19864" fill="#F73859"/>
<circle cx="1.7963" cy="253.829" r="1.19864" fill="#F73859"/>
<circle cx="23.3744" cy="253.829" r="1.19864" fill="#F73859"/>
<circle cx="44.9525" cy="253.829" r="1.19864" fill="#F73859"/>
<circle cx="66.5229" cy="253.829" r="1.19864" fill="#F73859"/>
<circle cx="88.101" cy="253.829" r="1.19864" fill="#F73859"/>
<circle cx="1.7963" cy="275.407" r="1.19864" fill="#F73859"/>
<circle cx="23.3744" cy="275.406" r="1.19864" fill="#F73859"/>
<circle cx="44.9525" cy="275.406" r="1.19864" fill="#F73859"/>
<circle cx="66.5229" cy="275.407" r="1.19864" fill="#F73859"/>
<circle cx="88.101" cy="275.406" r="1.19864" fill="#F73859"/>
<circle cx="1.7963" cy="296.982" r="1.19864" fill="#F73859"/>
<circle cx="23.3744" cy="296.981" r="1.19864" fill="#F73859"/>
<circle cx="44.9525" cy="296.981" r="1.19864" fill="#F73859"/>
<circle cx="66.5229" cy="296.982" r="1.19864" fill="#F73859"/>
<circle cx="88.101" cy="296.982" r="1.19864" fill="#F73859"/>
<circle cx="1.7963" cy="315.344" r="1.19864" fill="#F73859"/>
<circle cx="23.3744" cy="315.343" r="1.19864" fill="#F73859"/>
<circle cx="44.9525" cy="315.343" r="1.19864" fill="#F73859"/>
<circle cx="66.5229" cy="315.343" r="1.19864" fill="#F73859"/>
<circle cx="88.101" cy="315.343" r="1.19864" fill="#F73859"/>
<circle cx="1.7963" cy="336.918" r="1.19864" fill="#F73859"/>
<circle cx="23.3744" cy="336.917" r="1.19864" fill="#F73859"/>
<circle cx="44.9525" cy="336.917" r="1.19864" fill="#F73859"/>
<circle cx="66.5229" cy="336.918" r="1.19864" fill="#F73859"/>
<circle cx="88.101" cy="336.917" r="1.19864" fill="#F73859"/>
<circle cx="1.7963" cy="358.494" r="1.19864" fill="#F73859"/>
<circle cx="23.3744" cy="358.493" r="1.19864" fill="#F73859"/>
<circle cx="44.9525" cy="358.493" r="1.19864" fill="#F73859"/>
<circle cx="66.5229" cy="358.494" r="1.19864" fill="#F73859"/>
<circle cx="88.101" cy="358.494" r="1.19864" fill="#F73859"/>
<circle cx="1.7963" cy="380.071" r="1.19864" fill="#F73859"/>
<circle cx="23.3744" cy="380.07" r="1.19864" fill="#F73859"/>
<circle cx="44.9525" cy="380.07" r="1.19864" fill="#F73859"/>
<circle cx="66.5229" cy="380.071" r="1.19864" fill="#F73859"/>
<circle cx="88.101" cy="380.07" r="1.19864" fill="#F73859"/>
<circle cx="1.7963" cy="401.646" r="1.19864" fill="#F73859"/>
<circle cx="23.3744" cy="401.645" r="1.19864" fill="#F73859"/>
<circle cx="44.9525" cy="401.645" r="1.19864" fill="#F73859"/>
<circle cx="66.5229" cy="401.646" r="1.19864" fill="#F73859"/>
<circle cx="88.101" cy="401.646" r="1.19864" fill="#F73859"/>
<circle cx="1.7963" cy="420.007" r="1.19864" fill="#F73859"/>
<circle cx="23.3744" cy="420.006" r="1.19864" fill="#F73859"/>
<circle cx="44.9525" cy="420.006" r="1.19864" fill="#F73859"/>
<circle cx="66.5229" cy="420.006" r="1.19864" fill="#F73859"/>
<circle cx="88.101" cy="420.006" r="1.19864" fill="#F73859"/>
<circle cx="1.7963" cy="441.581" r="1.19864" fill="#F73859"/>
<circle cx="23.3744" cy="441.58" r="1.19864" fill="#F73859"/>
<circle cx="44.9525" cy="441.58" r="1.19864" fill="#F73859"/>
<circle cx="66.5229" cy="441.581" r="1.19864" fill="#F73859"/>
<circle cx="88.101" cy="441.58" r="1.19864" fill="#F73859"/>
<circle cx="1.7963" cy="463.157" r="1.19864" fill="#F73859"/>
<circle cx="23.3744" cy="463.156" r="1.19864" fill="#F73859"/>
<circle cx="44.9525" cy="463.156" r="1.19864" fill="#F73859"/>
<circle cx="66.5229" cy="463.157" r="1.19864" fill="#F73859"/>
<circle cx="88.101" cy="463.157" r="1.19864" fill="#F73859"/>
<circle cx="1.7963" cy="484.734" r="1.19864" fill="#F73859"/>
<circle cx="23.3744" cy="484.733" r="1.19864" fill="#F73859"/>
<circle cx="44.9525" cy="484.733" r="1.19864" fill="#F73859"/>
<circle cx="66.5229" cy="484.734" r="1.19864" fill="#F73859"/>
<circle cx="88.101" cy="484.733" r="1.19864" fill="#F73859"/>
<circle cx="1.7963" cy="506.308" r="1.19864" fill="#F73859"/>
<circle cx="23.3744" cy="506.307" r="1.19864" fill="#F73859"/>
<circle cx="44.9525" cy="506.307" r="1.19864" fill="#F73859"/>
<circle cx="66.5229" cy="506.308" r="1.19864" fill="#F73859"/>
<circle cx="88.101" cy="506.308" r="1.19864" fill="#F73859"/>
</svg>
