<svg width="33" height="32" viewBox="0 0 33 32" fill="none" xmlns="http://www.w3.org/2000/svg">
<path d="M27.988 1.10129C26.4862 1.00079 24.8843 0.799814 23.3825 2.30717C21.8807 3.81452 22.0809 5.42236 22.181 6.92972C22.2811 8.33658 22.4814 9.54246 21.3801 10.6479C20.2787 11.7532 19.0773 11.6528 17.6756 11.4518C16.1738 11.3513 14.5719 11.1503 13.0701 12.6577C11.5683 14.165 11.7685 15.7729 11.8687 17.2802C11.9688 18.6871 12.169 19.893 11.0677 20.9984C9.96639 22.1037 8.76495 22.0033 7.36327 21.8023C5.86147 21.7018 4.25955 21.5008 2.75775 23.0082C1.25595 24.5155 1.45619 26.1234 1.55631 27.6307C1.75655 28.9371 1.85667 30.143 0.855469 31.1479L1.65643 31.9518C3.05811 30.5449 2.85787 28.8366 2.75775 27.4297C2.65763 26.0229 2.45739 24.817 3.55871 23.7116C4.66003 22.6062 5.86147 22.7067 7.26315 22.9077C8.76495 23.0082 10.3669 23.2091 11.8687 21.7018C13.3705 20.1944 13.1702 18.5866 13.0701 17.0792C12.97 15.6724 12.7697 14.4665 13.8711 13.3611C14.9724 12.2557 16.1738 12.3562 17.5755 12.5572C19.0773 12.6577 20.6792 12.8586 22.181 11.3513C23.6828 9.84394 23.4826 8.23609 23.3825 6.72874C23.2824 5.32187 23.0821 4.11599 24.1834 3.0106C25.2847 1.90521 26.4862 2.0057 27.8879 2.20668C29.3897 2.30717 30.9916 2.50815 32.4934 1.00079L31.5923 0.297363C30.491 1.40276 29.2896 1.30227 27.988 1.10129Z" fill="#F73859"/>
</svg>
